<mxfile host="app.diagrams.net" agent="Mozilla/5.0 (Windows NT 10.0; Win64; x64) AppleWebKit/537.36 (KHTML, like Gecko) Chrome/128.0.0.0 Safari/537.36 OPR/114.0.0.0" version="24.8.3">
  <diagram name="Page-1" id="IiY3d-wcww6mmHiPdyNe">
    <mxGraphModel grid="1" page="1" gridSize="10" guides="1" tooltips="1" connect="1" arrows="1" fold="1" pageScale="1" pageWidth="850" pageHeight="1100" math="0" shadow="0">
      <root>
        <mxCell id="0" />
        <mxCell id="1" parent="0" />
        <mxCell id="CY8S7bmpGQMlvTJj6TYs-157" value="«Component»&lt;br&gt;&lt;b&gt;SPSO Controller&lt;/b&gt;" style="html=1;dropTarget=0;whiteSpace=wrap;verticalAlign=top;" vertex="1" parent="1">
          <mxGeometry x="500" y="-160" width="280" height="840" as="geometry" />
        </mxCell>
        <mxCell id="CY8S7bmpGQMlvTJj6TYs-158" value="" style="shape=module;jettyWidth=8;jettyHeight=4;" vertex="1" parent="CY8S7bmpGQMlvTJj6TYs-157">
          <mxGeometry x="1" width="20" height="20" relative="1" as="geometry">
            <mxPoint x="-27" y="7" as="offset" />
          </mxGeometry>
        </mxCell>
        <mxCell id="puAjaU_ZfNTtAV1WR_DC-28" value="«Component»&lt;br&gt;&lt;b&gt;Student Controller&lt;/b&gt;&lt;br&gt;&lt;div&gt;&lt;b&gt;&lt;br&gt;&lt;/b&gt;&lt;/div&gt;&lt;div&gt;&lt;b&gt;&lt;br&gt;&lt;/b&gt;&lt;/div&gt;&lt;div&gt;&lt;b&gt;&lt;br&gt;&lt;/b&gt;&lt;/div&gt;&lt;div&gt;&lt;b&gt;&lt;br&gt;&lt;/b&gt;&lt;/div&gt;&lt;div&gt;&lt;b&gt;&lt;br&gt;&lt;/b&gt;&lt;/div&gt;&lt;div&gt;&lt;b&gt;&lt;br&gt;&lt;/b&gt;&lt;/div&gt;&lt;div&gt;&lt;b&gt;&lt;br&gt;&lt;/b&gt;&lt;/div&gt;&lt;div&gt;&lt;b&gt;&lt;br&gt;&lt;/b&gt;&lt;/div&gt;&lt;div&gt;&lt;b&gt;&lt;br&gt;&lt;/b&gt;&lt;/div&gt;&lt;div&gt;&lt;b&gt;&lt;br&gt;&lt;/b&gt;&lt;/div&gt;&lt;div&gt;&lt;b&gt;&lt;br&gt;&lt;/b&gt;&lt;/div&gt;&lt;div&gt;&lt;b&gt;&lt;br&gt;&lt;/b&gt;&lt;/div&gt;&lt;div&gt;&lt;b&gt;&lt;br&gt;&lt;/b&gt;&lt;/div&gt;&lt;div&gt;&lt;b&gt;&lt;br&gt;&lt;/b&gt;&lt;/div&gt;" style="html=1;dropTarget=0;whiteSpace=wrap;verticalAlign=top;" vertex="1" parent="1">
          <mxGeometry x="500" y="-1020" width="280" height="820" as="geometry" />
        </mxCell>
        <mxCell id="puAjaU_ZfNTtAV1WR_DC-29" value="" style="shape=module;jettyWidth=8;jettyHeight=4;" vertex="1" parent="puAjaU_ZfNTtAV1WR_DC-28">
          <mxGeometry x="1" width="20" height="20" relative="1" as="geometry">
            <mxPoint x="-27" y="7" as="offset" />
          </mxGeometry>
        </mxCell>
        <mxCell id="CY8S7bmpGQMlvTJj6TYs-108" value="«Component»&lt;br&gt;&lt;b&gt;View history Controller&lt;/b&gt;&lt;div&gt;&lt;b&gt;&lt;br&gt;&lt;/b&gt;&lt;/div&gt;&lt;div&gt;&lt;b&gt;&lt;br&gt;&lt;/b&gt;&lt;/div&gt;&lt;div&gt;&lt;b&gt;&lt;br&gt;&lt;/b&gt;&lt;/div&gt;&lt;div&gt;&lt;b&gt;&lt;br&gt;&lt;/b&gt;&lt;/div&gt;&lt;div&gt;&lt;b&gt;&lt;br&gt;&lt;/b&gt;&lt;/div&gt;&lt;div&gt;&lt;b&gt;&lt;br&gt;&lt;/b&gt;&lt;/div&gt;&lt;div&gt;&lt;b&gt;&lt;br&gt;&lt;/b&gt;&lt;/div&gt;&lt;div&gt;&lt;b&gt;&lt;br&gt;&lt;/b&gt;&lt;/div&gt;&lt;div&gt;&lt;b&gt;&lt;br&gt;&lt;/b&gt;&lt;/div&gt;&lt;div&gt;&lt;b&gt;&lt;br&gt;&lt;/b&gt;&lt;/div&gt;&lt;div&gt;&lt;b&gt;&lt;br&gt;&lt;/b&gt;&lt;/div&gt;&lt;div&gt;&lt;b&gt;&lt;br&gt;&lt;/b&gt;&lt;/div&gt;&lt;div&gt;&lt;b&gt;&lt;br&gt;&lt;/b&gt;&lt;/div&gt;&lt;div&gt;&lt;b&gt;&lt;br&gt;&lt;/b&gt;&lt;/div&gt;&lt;div&gt;&lt;b&gt;&lt;br&gt;&lt;/b&gt;&lt;/div&gt;&lt;div&gt;&lt;b&gt;&lt;br&gt;&lt;/b&gt;&lt;/div&gt;&lt;div&gt;&lt;b&gt;&lt;br&gt;&lt;/b&gt;&lt;/div&gt;&lt;div&gt;&lt;b&gt;&lt;br&gt;&lt;/b&gt;&lt;/div&gt;&lt;div&gt;&lt;b&gt;&lt;br&gt;&lt;/b&gt;&lt;/div&gt;&lt;div&gt;&lt;b&gt;&lt;br&gt;&lt;/b&gt;&lt;/div&gt;&lt;div&gt;&lt;b&gt;&lt;br&gt;&lt;/b&gt;&lt;/div&gt;&lt;div&gt;&lt;b&gt;&lt;br&gt;&lt;/b&gt;&lt;/div&gt;&lt;div&gt;&lt;b&gt;&lt;br&gt;&lt;/b&gt;&lt;/div&gt;&lt;div&gt;&lt;b&gt;&lt;br&gt;&lt;/b&gt;&lt;/div&gt;&lt;div&gt;&lt;b&gt;&lt;br&gt;&lt;/b&gt;&lt;/div&gt;&lt;div&gt;&lt;b&gt;&lt;br&gt;&lt;/b&gt;&lt;/div&gt;&lt;div&gt;&lt;b&gt;&lt;br&gt;&lt;/b&gt;&lt;/div&gt;" style="html=1;dropTarget=0;whiteSpace=wrap;verticalAlign=top;" vertex="1" parent="1">
          <mxGeometry x="530" y="-120" width="220" height="200" as="geometry" />
        </mxCell>
        <mxCell id="CY8S7bmpGQMlvTJj6TYs-109" value="" style="shape=module;jettyWidth=8;jettyHeight=4;" vertex="1" parent="CY8S7bmpGQMlvTJj6TYs-108">
          <mxGeometry x="1" width="20" height="20" relative="1" as="geometry">
            <mxPoint x="-27" y="7" as="offset" />
          </mxGeometry>
        </mxCell>
        <mxCell id="CY8S7bmpGQMlvTJj6TYs-6" value="View" style="shape=umlFrame;whiteSpace=wrap;html=1;pointerEvents=0;width=80;height=40;" vertex="1" parent="1">
          <mxGeometry y="-1080" width="320" height="1800" as="geometry" />
        </mxCell>
        <mxCell id="CY8S7bmpGQMlvTJj6TYs-112" value="«Component»&lt;br&gt;&lt;b&gt;Get student &lt;br&gt;printing history&lt;/b&gt;" style="html=1;dropTarget=0;whiteSpace=wrap;" vertex="1" parent="1">
          <mxGeometry x="562" y="-80" width="159" height="60" as="geometry" />
        </mxCell>
        <mxCell id="CY8S7bmpGQMlvTJj6TYs-113" value="" style="shape=module;jettyWidth=8;jettyHeight=4;" vertex="1" parent="CY8S7bmpGQMlvTJj6TYs-112">
          <mxGeometry x="1" width="20" height="20" relative="1" as="geometry">
            <mxPoint x="-27" y="7" as="offset" />
          </mxGeometry>
        </mxCell>
        <mxCell id="CY8S7bmpGQMlvTJj6TYs-24" value="«Component»&lt;br&gt;&lt;b&gt;Printing Controller&lt;/b&gt;&lt;div&gt;&lt;b&gt;&lt;br&gt;&lt;/b&gt;&lt;/div&gt;&lt;div&gt;&lt;b&gt;&lt;br&gt;&lt;/b&gt;&lt;/div&gt;&lt;div&gt;&lt;b&gt;&lt;br&gt;&lt;/b&gt;&lt;/div&gt;&lt;div&gt;&lt;b&gt;&lt;br&gt;&lt;/b&gt;&lt;/div&gt;&lt;div&gt;&lt;b&gt;&lt;br&gt;&lt;/b&gt;&lt;/div&gt;&lt;div&gt;&lt;b&gt;&lt;br&gt;&lt;/b&gt;&lt;/div&gt;&lt;div&gt;&lt;b&gt;&lt;br&gt;&lt;/b&gt;&lt;/div&gt;&lt;div&gt;&lt;b&gt;&lt;br&gt;&lt;/b&gt;&lt;/div&gt;&lt;div&gt;&lt;b&gt;&lt;br&gt;&lt;/b&gt;&lt;/div&gt;&lt;div&gt;&lt;b&gt;&lt;br&gt;&lt;/b&gt;&lt;/div&gt;&lt;div&gt;&lt;b&gt;&lt;br&gt;&lt;/b&gt;&lt;/div&gt;&lt;div&gt;&lt;b&gt;&lt;br&gt;&lt;/b&gt;&lt;/div&gt;&lt;div&gt;&lt;b&gt;&lt;br&gt;&lt;/b&gt;&lt;/div&gt;&lt;div&gt;&lt;b&gt;&lt;br&gt;&lt;/b&gt;&lt;/div&gt;&lt;div&gt;&lt;b&gt;&lt;br&gt;&lt;/b&gt;&lt;/div&gt;&lt;div&gt;&lt;b&gt;&lt;br&gt;&lt;/b&gt;&lt;/div&gt;&lt;div&gt;&lt;b&gt;&lt;br&gt;&lt;/b&gt;&lt;/div&gt;&lt;div&gt;&lt;b&gt;&lt;br&gt;&lt;/b&gt;&lt;/div&gt;&lt;div&gt;&lt;b&gt;&lt;br&gt;&lt;/b&gt;&lt;/div&gt;&lt;div&gt;&lt;b&gt;&lt;br&gt;&lt;/b&gt;&lt;/div&gt;&lt;div&gt;&lt;b&gt;&lt;br&gt;&lt;/b&gt;&lt;/div&gt;&lt;div&gt;&lt;b&gt;&lt;br&gt;&lt;/b&gt;&lt;/div&gt;&lt;div&gt;&lt;br&gt;&lt;/div&gt;" style="html=1;dropTarget=0;whiteSpace=wrap;verticalAlign=top;" vertex="1" parent="1">
          <mxGeometry x="530" y="-980" width="220" height="340" as="geometry" />
        </mxCell>
        <mxCell id="CY8S7bmpGQMlvTJj6TYs-25" value="" style="shape=module;jettyWidth=8;jettyHeight=4;" vertex="1" parent="CY8S7bmpGQMlvTJj6TYs-24">
          <mxGeometry x="1" width="20" height="20" relative="1" as="geometry">
            <mxPoint x="-27" y="7" as="offset" />
          </mxGeometry>
        </mxCell>
        <mxCell id="CY8S7bmpGQMlvTJj6TYs-26" value="Controller" style="shape=umlFrame;whiteSpace=wrap;html=1;pointerEvents=0;width=80;height=40;" vertex="1" parent="1">
          <mxGeometry x="480" y="-1080" width="320" height="1800" as="geometry" />
        </mxCell>
        <mxCell id="CY8S7bmpGQMlvTJj6TYs-27" value="«Component»&lt;br&gt;&lt;b&gt;Accept files&lt;/b&gt;" style="html=1;dropTarget=0;whiteSpace=wrap;" vertex="1" parent="1">
          <mxGeometry x="560" y="-920" width="160" height="60" as="geometry" />
        </mxCell>
        <mxCell id="CY8S7bmpGQMlvTJj6TYs-28" value="" style="shape=module;jettyWidth=8;jettyHeight=4;" vertex="1" parent="CY8S7bmpGQMlvTJj6TYs-27">
          <mxGeometry x="1" width="20" height="20" relative="1" as="geometry">
            <mxPoint x="-27" y="7" as="offset" />
          </mxGeometry>
        </mxCell>
        <mxCell id="CY8S7bmpGQMlvTJj6TYs-29" value="«Component»&lt;br&gt;&lt;b&gt;Accept&amp;nbsp;&lt;/b&gt;&lt;b&gt;properties&lt;/b&gt;" style="html=1;dropTarget=0;whiteSpace=wrap;" vertex="1" parent="1">
          <mxGeometry x="560" y="-820" width="160" height="60" as="geometry" />
        </mxCell>
        <mxCell id="CY8S7bmpGQMlvTJj6TYs-30" value="" style="shape=module;jettyWidth=8;jettyHeight=4;" vertex="1" parent="CY8S7bmpGQMlvTJj6TYs-29">
          <mxGeometry x="1" width="20" height="20" relative="1" as="geometry">
            <mxPoint x="-27" y="7" as="offset" />
          </mxGeometry>
        </mxCell>
        <mxCell id="CY8S7bmpGQMlvTJj6TYs-31" value="«Component»&lt;br&gt;&lt;b&gt;Purchase Controller&lt;/b&gt;&lt;div&gt;&lt;b&gt;&lt;br&gt;&lt;/b&gt;&lt;/div&gt;&lt;div&gt;&lt;b&gt;&lt;br&gt;&lt;/b&gt;&lt;/div&gt;&lt;div&gt;&lt;b&gt;&lt;br&gt;&lt;/b&gt;&lt;/div&gt;&lt;div&gt;&lt;b&gt;&lt;br&gt;&lt;/b&gt;&lt;/div&gt;&lt;div&gt;&lt;b&gt;&lt;br&gt;&lt;/b&gt;&lt;/div&gt;&lt;div&gt;&lt;br&gt;&lt;/div&gt;" style="html=1;dropTarget=0;whiteSpace=wrap;verticalAlign=top;" vertex="1" parent="1">
          <mxGeometry x="530" y="-620" width="211" height="180" as="geometry" />
        </mxCell>
        <mxCell id="CY8S7bmpGQMlvTJj6TYs-32" value="" style="shape=module;jettyWidth=8;jettyHeight=4;" vertex="1" parent="CY8S7bmpGQMlvTJj6TYs-31">
          <mxGeometry x="1" width="20" height="27" relative="1" as="geometry">
            <mxPoint x="-27" y="7" as="offset" />
          </mxGeometry>
        </mxCell>
        <mxCell id="CY8S7bmpGQMlvTJj6TYs-33" value="«Component»&lt;br&gt;&lt;b&gt;Purchase&lt;/b&gt;" style="html=1;dropTarget=0;whiteSpace=wrap;" vertex="1" parent="1">
          <mxGeometry x="561" y="-500" width="160" height="50" as="geometry" />
        </mxCell>
        <mxCell id="CY8S7bmpGQMlvTJj6TYs-34" value="" style="shape=module;jettyWidth=8;jettyHeight=4;" vertex="1" parent="CY8S7bmpGQMlvTJj6TYs-33">
          <mxGeometry x="1" width="20" height="27" relative="1" as="geometry">
            <mxPoint x="-27" y="7" as="offset" />
          </mxGeometry>
        </mxCell>
        <mxCell id="CY8S7bmpGQMlvTJj6TYs-37" value="&lt;div&gt;&lt;span style=&quot;background-color: initial;&quot;&gt;«Component»&lt;/span&gt;&lt;br&gt;&lt;/div&gt;&lt;b&gt;SPSO Page Config Controller&lt;/b&gt;&lt;div&gt;&lt;b&gt;&lt;br&gt;&lt;/b&gt;&lt;/div&gt;&lt;div&gt;&lt;b&gt;&lt;br&gt;&lt;/b&gt;&lt;/div&gt;&lt;div&gt;&lt;b&gt;&lt;br&gt;&lt;/b&gt;&lt;/div&gt;&lt;div&gt;&lt;b&gt;&lt;br&gt;&lt;/b&gt;&lt;/div&gt;&lt;div&gt;&lt;b&gt;&lt;br&gt;&lt;/b&gt;&lt;/div&gt;&lt;div&gt;&lt;b&gt;&lt;br&gt;&lt;/b&gt;&lt;/div&gt;&lt;div&gt;&lt;b&gt;&lt;br&gt;&lt;/b&gt;&lt;/div&gt;&lt;div&gt;&lt;b&gt;&lt;br&gt;&lt;/b&gt;&lt;/div&gt;&lt;div&gt;&lt;b&gt;&lt;br&gt;&lt;/b&gt;&lt;/div&gt;&lt;div&gt;&lt;b&gt;&lt;br&gt;&lt;/b&gt;&lt;/div&gt;&lt;div&gt;&lt;b&gt;&lt;br&gt;&lt;/b&gt;&lt;/div&gt;&lt;div&gt;&lt;b&gt;&lt;br&gt;&lt;/b&gt;&lt;/div&gt;&lt;div&gt;&lt;b&gt;&lt;br&gt;&lt;/b&gt;&lt;/div&gt;" style="html=1;dropTarget=0;whiteSpace=wrap;verticalAlign=top;" vertex="1" parent="1">
          <mxGeometry x="529.5" y="100" width="220.5" height="120" as="geometry" />
        </mxCell>
        <mxCell id="CY8S7bmpGQMlvTJj6TYs-38" value="" style="shape=module;jettyWidth=8;jettyHeight=4;" vertex="1" parent="CY8S7bmpGQMlvTJj6TYs-37">
          <mxGeometry x="1" width="20" height="20" relative="1" as="geometry">
            <mxPoint x="-27" y="7" as="offset" />
          </mxGeometry>
        </mxCell>
        <mxCell id="CY8S7bmpGQMlvTJj6TYs-43" value="«Component»&lt;br&gt;&lt;b&gt;Database&lt;/b&gt;&lt;br&gt;&lt;div&gt;&lt;b&gt;&lt;br&gt;&lt;/b&gt;&lt;/div&gt;&lt;div&gt;&lt;b&gt;&lt;br&gt;&lt;/b&gt;&lt;/div&gt;&lt;div&gt;&lt;b&gt;&lt;br&gt;&lt;/b&gt;&lt;/div&gt;&lt;div&gt;&lt;b&gt;&lt;br&gt;&lt;/b&gt;&lt;/div&gt;&lt;div&gt;&lt;b&gt;&lt;br&gt;&lt;/b&gt;&lt;/div&gt;&lt;div&gt;&lt;b&gt;&lt;br&gt;&lt;/b&gt;&lt;/div&gt;&lt;div&gt;&lt;b&gt;&lt;br&gt;&lt;/b&gt;&lt;/div&gt;&lt;div&gt;&lt;b&gt;&lt;br&gt;&lt;/b&gt;&lt;/div&gt;&lt;div&gt;&lt;b&gt;&lt;br&gt;&lt;/b&gt;&lt;/div&gt;&lt;div&gt;&lt;b&gt;&lt;br&gt;&lt;/b&gt;&lt;/div&gt;&lt;div&gt;&lt;b&gt;&lt;br&gt;&lt;/b&gt;&lt;/div&gt;&lt;div&gt;&lt;b&gt;&lt;br&gt;&lt;/b&gt;&lt;/div&gt;&lt;div&gt;&lt;b&gt;&lt;br&gt;&lt;/b&gt;&lt;/div&gt;&lt;div&gt;&lt;b&gt;&lt;br&gt;&lt;/b&gt;&lt;/div&gt;" style="html=1;dropTarget=0;whiteSpace=wrap;verticalAlign=top;" vertex="1" parent="1">
          <mxGeometry x="1000" y="-1020" width="240" height="1700" as="geometry" />
        </mxCell>
        <mxCell id="CY8S7bmpGQMlvTJj6TYs-44" value="" style="shape=module;jettyWidth=8;jettyHeight=4;" vertex="1" parent="CY8S7bmpGQMlvTJj6TYs-43">
          <mxGeometry x="1" width="20" height="20" relative="1" as="geometry">
            <mxPoint x="-27" y="7" as="offset" />
          </mxGeometry>
        </mxCell>
        <mxCell id="CY8S7bmpGQMlvTJj6TYs-45" value="Model" style="shape=umlFrame;whiteSpace=wrap;html=1;pointerEvents=0;width=80;height=40;" vertex="1" parent="1">
          <mxGeometry x="960" y="-1080" width="320" height="1800" as="geometry" />
        </mxCell>
        <mxCell id="CY8S7bmpGQMlvTJj6TYs-48" value="&lt;div&gt;&lt;br&gt;&lt;/div&gt;&lt;div&gt;&lt;span style=&quot;background-color: initial;&quot;&gt;&lt;br&gt;&lt;/span&gt;&lt;/div&gt;&lt;div&gt;&lt;span style=&quot;background-color: initial;&quot;&gt;&lt;br&gt;&lt;/span&gt;&lt;/div&gt;&lt;div&gt;&lt;span style=&quot;background-color: initial;&quot;&gt;«Component»&lt;/span&gt;&lt;br&gt;&lt;/div&gt;&lt;b&gt;Configuration Database&lt;br&gt;&lt;/b&gt;" style="html=1;dropTarget=0;whiteSpace=wrap;verticalAlign=top;" vertex="1" parent="1">
          <mxGeometry x="1039" y="100" width="159" height="120" as="geometry" />
        </mxCell>
        <mxCell id="CY8S7bmpGQMlvTJj6TYs-49" value="" style="shape=module;jettyWidth=8;jettyHeight=4;" vertex="1" parent="CY8S7bmpGQMlvTJj6TYs-48">
          <mxGeometry x="1" width="20" height="20" relative="1" as="geometry">
            <mxPoint x="-27" y="7" as="offset" />
          </mxGeometry>
        </mxCell>
        <mxCell id="CY8S7bmpGQMlvTJj6TYs-64" value="" style="whiteSpace=wrap;html=1;aspect=fixed;" vertex="1" parent="1">
          <mxGeometry x="990" y="-552" width="20" height="20" as="geometry" />
        </mxCell>
        <mxCell id="CY8S7bmpGQMlvTJj6TYs-65" value="" style="whiteSpace=wrap;html=1;aspect=fixed;" vertex="1" parent="1">
          <mxGeometry x="990" y="-510" width="20" height="20" as="geometry" />
        </mxCell>
        <mxCell id="CY8S7bmpGQMlvTJj6TYs-66" value="" style="line;strokeWidth=1;fillColor=none;align=left;verticalAlign=middle;spacingTop=-1;spacingLeft=3;spacingRight=3;rotatable=0;labelPosition=right;points=[];portConstraint=eastwest;strokeColor=inherit;" vertex="1" parent="1">
          <mxGeometry x="1010" y="-546" width="20" height="8" as="geometry" />
        </mxCell>
        <mxCell id="CY8S7bmpGQMlvTJj6TYs-67" value="" style="line;strokeWidth=1;fillColor=none;align=left;verticalAlign=middle;spacingTop=-1;spacingLeft=3;spacingRight=3;rotatable=0;labelPosition=right;points=[];portConstraint=eastwest;strokeColor=inherit;" vertex="1" parent="1">
          <mxGeometry x="1010" y="-504" width="20" height="8" as="geometry" />
        </mxCell>
        <mxCell id="CY8S7bmpGQMlvTJj6TYs-82" value="«Component»&lt;br&gt;&lt;b&gt;Print packet&lt;/b&gt;" style="html=1;dropTarget=0;whiteSpace=wrap;" vertex="1" parent="1">
          <mxGeometry x="561" y="-710" width="160" height="60" as="geometry" />
        </mxCell>
        <mxCell id="CY8S7bmpGQMlvTJj6TYs-83" value="" style="shape=module;jettyWidth=8;jettyHeight=4;" vertex="1" parent="CY8S7bmpGQMlvTJj6TYs-82">
          <mxGeometry x="1" width="20" height="20" relative="1" as="geometry">
            <mxPoint x="-27" y="7" as="offset" />
          </mxGeometry>
        </mxCell>
        <mxCell id="CY8S7bmpGQMlvTJj6TYs-84" style="edgeStyle=orthogonalEdgeStyle;rounded=0;orthogonalLoop=1;jettySize=auto;html=1;exitX=0.5;exitY=1;exitDx=0;exitDy=0;" edge="1" parent="1" source="CY8S7bmpGQMlvTJj6TYs-29" target="CY8S7bmpGQMlvTJj6TYs-29">
          <mxGeometry relative="1" as="geometry" />
        </mxCell>
        <mxCell id="CY8S7bmpGQMlvTJj6TYs-85" value="«Component»&lt;br&gt;&lt;b&gt;Load Configuration&lt;/b&gt;" style="html=1;dropTarget=0;whiteSpace=wrap;" vertex="1" parent="1">
          <mxGeometry x="560" y="140" width="159.5" height="60" as="geometry" />
        </mxCell>
        <mxCell id="CY8S7bmpGQMlvTJj6TYs-86" value="" style="shape=module;jettyWidth=8;jettyHeight=4;" vertex="1" parent="CY8S7bmpGQMlvTJj6TYs-85">
          <mxGeometry x="1" width="20" height="20" relative="1" as="geometry">
            <mxPoint x="-27" y="7" as="offset" />
          </mxGeometry>
        </mxCell>
        <mxCell id="CY8S7bmpGQMlvTJj6TYs-126" value="«Component»&lt;br&gt;&lt;div&gt;&lt;b&gt;View report Controller&lt;/b&gt;&lt;b&gt;&lt;br&gt;&lt;/b&gt;&lt;/div&gt;&lt;div&gt;&lt;b&gt;&lt;br&gt;&lt;/b&gt;&lt;/div&gt;&lt;div&gt;&lt;b&gt;&lt;br&gt;&lt;/b&gt;&lt;/div&gt;&lt;div&gt;&lt;b&gt;&lt;br&gt;&lt;/b&gt;&lt;/div&gt;&lt;div&gt;&lt;b&gt;&lt;br&gt;&lt;/b&gt;&lt;/div&gt;&lt;div&gt;&lt;b&gt;&lt;br&gt;&lt;/b&gt;&lt;/div&gt;&lt;div&gt;&lt;b&gt;&lt;br&gt;&lt;/b&gt;&lt;/div&gt;&lt;div&gt;&lt;b&gt;&lt;br&gt;&lt;/b&gt;&lt;/div&gt;&lt;div&gt;&lt;b&gt;&lt;br&gt;&lt;/b&gt;&lt;/div&gt;&lt;div&gt;&lt;b&gt;&lt;br&gt;&lt;/b&gt;&lt;/div&gt;&lt;div&gt;&lt;b&gt;&lt;br&gt;&lt;/b&gt;&lt;/div&gt;&lt;div&gt;&lt;b&gt;&lt;br&gt;&lt;/b&gt;&lt;/div&gt;&lt;div&gt;&lt;b&gt;&lt;br&gt;&lt;/b&gt;&lt;/div&gt;&lt;div&gt;&lt;b&gt;&lt;br&gt;&lt;/b&gt;&lt;/div&gt;&lt;div&gt;&lt;b&gt;&lt;br&gt;&lt;/b&gt;&lt;/div&gt;&lt;div&gt;&lt;b&gt;&lt;br&gt;&lt;/b&gt;&lt;/div&gt;&lt;div&gt;&lt;b&gt;&lt;br&gt;&lt;/b&gt;&lt;/div&gt;&lt;div&gt;&lt;b&gt;&lt;br&gt;&lt;/b&gt;&lt;/div&gt;&lt;div&gt;&lt;b&gt;&lt;br&gt;&lt;/b&gt;&lt;/div&gt;&lt;div&gt;&lt;br&gt;&lt;/div&gt;" style="html=1;dropTarget=0;whiteSpace=wrap;verticalAlign=top;" vertex="1" parent="1">
          <mxGeometry x="530" y="540" width="220" height="120" as="geometry" />
        </mxCell>
        <mxCell id="CY8S7bmpGQMlvTJj6TYs-127" value="" style="shape=module;jettyWidth=8;jettyHeight=4;" vertex="1" parent="CY8S7bmpGQMlvTJj6TYs-126">
          <mxGeometry x="1" width="20" height="20" relative="1" as="geometry">
            <mxPoint x="-27" y="7" as="offset" />
          </mxGeometry>
        </mxCell>
        <mxCell id="CY8S7bmpGQMlvTJj6TYs-128" value="«Component»&lt;br&gt;&lt;b&gt;Get report&lt;/b&gt;" style="html=1;dropTarget=0;whiteSpace=wrap;" vertex="1" parent="1">
          <mxGeometry x="563" y="580" width="159.5" height="60" as="geometry" />
        </mxCell>
        <mxCell id="CY8S7bmpGQMlvTJj6TYs-129" value="" style="shape=module;jettyWidth=8;jettyHeight=4;" vertex="1" parent="CY8S7bmpGQMlvTJj6TYs-128">
          <mxGeometry x="1" width="20" height="20" relative="1" as="geometry">
            <mxPoint x="-27" y="7" as="offset" />
          </mxGeometry>
        </mxCell>
        <mxCell id="CY8S7bmpGQMlvTJj6TYs-155" value="«Component»&lt;br&gt;&lt;b&gt;Printer Database&lt;/b&gt;" style="html=1;dropTarget=0;whiteSpace=wrap;" vertex="1" parent="1">
          <mxGeometry x="1039" y="260" width="161" height="260" as="geometry" />
        </mxCell>
        <mxCell id="CY8S7bmpGQMlvTJj6TYs-156" value="" style="shape=module;jettyWidth=8;jettyHeight=4;" vertex="1" parent="CY8S7bmpGQMlvTJj6TYs-155">
          <mxGeometry x="1" width="20" height="20" relative="1" as="geometry">
            <mxPoint x="-27" y="7" as="offset" />
          </mxGeometry>
        </mxCell>
        <mxCell id="puAjaU_ZfNTtAV1WR_DC-26" value="«Component»&lt;br&gt;&lt;b&gt;Report Database&lt;br&gt;&lt;br&gt;&lt;/b&gt;" style="html=1;dropTarget=0;whiteSpace=wrap;" vertex="1" parent="1">
          <mxGeometry x="1040" y="540" width="160" height="120" as="geometry" />
        </mxCell>
        <mxCell id="puAjaU_ZfNTtAV1WR_DC-27" value="" style="shape=module;jettyWidth=8;jettyHeight=4;" vertex="1" parent="puAjaU_ZfNTtAV1WR_DC-26">
          <mxGeometry x="1" width="20" height="20" relative="1" as="geometry">
            <mxPoint x="-27" y="7" as="offset" />
          </mxGeometry>
        </mxCell>
        <mxCell id="puAjaU_ZfNTtAV1WR_DC-30" value="«Component»&lt;br&gt;&lt;b&gt;View history controller&lt;/b&gt;" style="html=1;dropTarget=0;whiteSpace=wrap;verticalAlign=top;" vertex="1" parent="1">
          <mxGeometry x="530" y="-410" width="220" height="190" as="geometry" />
        </mxCell>
        <mxCell id="puAjaU_ZfNTtAV1WR_DC-31" value="" style="shape=module;jettyWidth=8;jettyHeight=4;" vertex="1" parent="puAjaU_ZfNTtAV1WR_DC-30">
          <mxGeometry x="1" width="20" height="27" relative="1" as="geometry">
            <mxPoint x="-27" y="7" as="offset" />
          </mxGeometry>
        </mxCell>
        <mxCell id="puAjaU_ZfNTtAV1WR_DC-38" value="«Component»&lt;br&gt;&lt;b&gt;Printer config controller&lt;/b&gt;" style="html=1;dropTarget=0;whiteSpace=wrap;verticalAlign=top;" vertex="1" parent="1">
          <mxGeometry x="529" y="240" width="221" height="280" as="geometry" />
        </mxCell>
        <mxCell id="puAjaU_ZfNTtAV1WR_DC-39" value="" style="shape=module;jettyWidth=8;jettyHeight=4;" vertex="1" parent="puAjaU_ZfNTtAV1WR_DC-38">
          <mxGeometry x="1" width="20" height="27" relative="1" as="geometry">
            <mxPoint x="-27" y="7" as="offset" />
          </mxGeometry>
        </mxCell>
        <mxCell id="puAjaU_ZfNTtAV1WR_DC-46" value="«Component»&lt;br&gt;&lt;b&gt;Get student history&lt;/b&gt;" style="html=1;dropTarget=0;whiteSpace=wrap;" vertex="1" parent="1">
          <mxGeometry x="560.5" y="-290" width="160" height="60" as="geometry" />
        </mxCell>
        <mxCell id="puAjaU_ZfNTtAV1WR_DC-47" value="" style="shape=module;jettyWidth=8;jettyHeight=4;" vertex="1" parent="puAjaU_ZfNTtAV1WR_DC-46">
          <mxGeometry x="1" width="20" height="20" relative="1" as="geometry">
            <mxPoint x="-27" y="7" as="offset" />
          </mxGeometry>
        </mxCell>
        <mxCell id="puAjaU_ZfNTtAV1WR_DC-48" value="«Component»&lt;br&gt;&lt;b&gt;Student View&lt;/b&gt;&lt;br&gt;&lt;div&gt;&lt;b&gt;&lt;br&gt;&lt;/b&gt;&lt;/div&gt;&lt;div&gt;&lt;b&gt;&lt;br&gt;&lt;/b&gt;&lt;/div&gt;&lt;div&gt;&lt;b&gt;&lt;br&gt;&lt;/b&gt;&lt;/div&gt;&lt;div&gt;&lt;b&gt;&lt;br&gt;&lt;/b&gt;&lt;/div&gt;&lt;div&gt;&lt;b&gt;&lt;br&gt;&lt;/b&gt;&lt;/div&gt;&lt;div&gt;&lt;b&gt;&lt;br&gt;&lt;/b&gt;&lt;/div&gt;&lt;div&gt;&lt;b&gt;&lt;br&gt;&lt;/b&gt;&lt;/div&gt;&lt;div&gt;&lt;b&gt;&lt;br&gt;&lt;/b&gt;&lt;/div&gt;&lt;div&gt;&lt;b&gt;&lt;br&gt;&lt;/b&gt;&lt;/div&gt;&lt;div&gt;&lt;b&gt;&lt;br&gt;&lt;/b&gt;&lt;/div&gt;&lt;div&gt;&lt;b&gt;&lt;br&gt;&lt;/b&gt;&lt;/div&gt;&lt;div&gt;&lt;b&gt;&lt;br&gt;&lt;/b&gt;&lt;/div&gt;&lt;div&gt;&lt;b&gt;&lt;br&gt;&lt;/b&gt;&lt;/div&gt;&lt;div&gt;&lt;b&gt;&lt;br&gt;&lt;/b&gt;&lt;/div&gt;" style="html=1;dropTarget=0;whiteSpace=wrap;verticalAlign=top;" vertex="1" parent="1">
          <mxGeometry x="39.25" y="-1020" width="250.75" height="820" as="geometry" />
        </mxCell>
        <mxCell id="puAjaU_ZfNTtAV1WR_DC-49" value="" style="shape=module;jettyWidth=8;jettyHeight=4;" vertex="1" parent="puAjaU_ZfNTtAV1WR_DC-48">
          <mxGeometry x="1" width="20" height="20" relative="1" as="geometry">
            <mxPoint x="-27" y="7" as="offset" />
          </mxGeometry>
        </mxCell>
        <mxCell id="puAjaU_ZfNTtAV1WR_DC-56" value="«Component»&lt;br&gt;&lt;b&gt;View history view&lt;/b&gt;&lt;br&gt;&lt;div&gt;&lt;b&gt;&lt;br&gt;&lt;/b&gt;&lt;/div&gt;&lt;div&gt;&lt;b&gt;&lt;br&gt;&lt;/b&gt;&lt;/div&gt;&lt;div&gt;&lt;b&gt;&lt;br&gt;&lt;/b&gt;&lt;/div&gt;&lt;div&gt;&lt;b&gt;&lt;br&gt;&lt;/b&gt;&lt;/div&gt;&lt;div&gt;&lt;b&gt;&lt;br&gt;&lt;/b&gt;&lt;/div&gt;&lt;div&gt;&lt;br&gt;&lt;/div&gt;" style="html=1;dropTarget=0;whiteSpace=wrap;verticalAlign=top;" vertex="1" parent="1">
          <mxGeometry x="59.62" y="-420" width="200" height="200" as="geometry" />
        </mxCell>
        <mxCell id="puAjaU_ZfNTtAV1WR_DC-57" value="" style="shape=module;jettyWidth=8;jettyHeight=4;" vertex="1" parent="puAjaU_ZfNTtAV1WR_DC-56">
          <mxGeometry x="1" width="20" height="27" relative="1" as="geometry">
            <mxPoint x="-27" y="7" as="offset" />
          </mxGeometry>
        </mxCell>
        <mxCell id="puAjaU_ZfNTtAV1WR_DC-58" value="«Component»&lt;br&gt;&lt;b&gt;Display student history&lt;/b&gt;" style="html=1;dropTarget=0;whiteSpace=wrap;" vertex="1" parent="1">
          <mxGeometry x="70.38" y="-300" width="160" height="70" as="geometry" />
        </mxCell>
        <mxCell id="puAjaU_ZfNTtAV1WR_DC-59" value="" style="shape=module;jettyWidth=8;jettyHeight=4;" vertex="1" parent="puAjaU_ZfNTtAV1WR_DC-58">
          <mxGeometry x="1" width="20" height="27" relative="1" as="geometry">
            <mxPoint x="-27" y="7" as="offset" />
          </mxGeometry>
        </mxCell>
        <mxCell id="puAjaU_ZfNTtAV1WR_DC-64" style="edgeStyle=orthogonalEdgeStyle;rounded=0;orthogonalLoop=1;jettySize=auto;html=1;exitX=0.5;exitY=1;exitDx=0;exitDy=0;" edge="1" parent="1">
          <mxGeometry relative="1" as="geometry">
            <mxPoint x="212" y="-769" as="sourcePoint" />
            <mxPoint x="212" y="-769" as="targetPoint" />
          </mxGeometry>
        </mxCell>
        <mxCell id="puAjaU_ZfNTtAV1WR_DC-65" value="«Component»&lt;br&gt;&lt;b&gt;Printing view&lt;/b&gt;" style="html=1;dropTarget=0;whiteSpace=wrap;verticalAlign=top;" vertex="1" parent="1">
          <mxGeometry x="60" y="-970" width="200" height="330" as="geometry" />
        </mxCell>
        <mxCell id="puAjaU_ZfNTtAV1WR_DC-66" value="" style="shape=module;jettyWidth=8;jettyHeight=4;" vertex="1" parent="puAjaU_ZfNTtAV1WR_DC-65">
          <mxGeometry x="1" width="20" height="27" relative="1" as="geometry">
            <mxPoint x="-27" y="7" as="offset" />
          </mxGeometry>
        </mxCell>
        <mxCell id="puAjaU_ZfNTtAV1WR_DC-67" value="«Component»&lt;br&gt;&lt;b&gt;Select documents&lt;/b&gt;" style="html=1;dropTarget=0;whiteSpace=wrap;" vertex="1" parent="1">
          <mxGeometry x="70" y="-920" width="160" height="60" as="geometry" />
        </mxCell>
        <mxCell id="puAjaU_ZfNTtAV1WR_DC-68" value="" style="shape=module;jettyWidth=8;jettyHeight=4;" vertex="1" parent="puAjaU_ZfNTtAV1WR_DC-67">
          <mxGeometry x="1" width="20" height="20" relative="1" as="geometry">
            <mxPoint x="-27" y="7" as="offset" />
          </mxGeometry>
        </mxCell>
        <mxCell id="puAjaU_ZfNTtAV1WR_DC-69" value="«Component»&lt;br&gt;&lt;b&gt;SPSO View&lt;/b&gt;" style="html=1;dropTarget=0;whiteSpace=wrap;verticalAlign=top;" vertex="1" parent="1">
          <mxGeometry x="40" y="-160" width="250" height="840" as="geometry" />
        </mxCell>
        <mxCell id="puAjaU_ZfNTtAV1WR_DC-70" value="" style="shape=module;jettyWidth=8;jettyHeight=4;" vertex="1" parent="puAjaU_ZfNTtAV1WR_DC-69">
          <mxGeometry x="1" width="20" height="20" relative="1" as="geometry">
            <mxPoint x="-27" y="7" as="offset" />
          </mxGeometry>
        </mxCell>
        <mxCell id="puAjaU_ZfNTtAV1WR_DC-71" value="«Component»&lt;br&gt;&lt;b&gt;View report view&lt;/b&gt;&lt;br&gt;&lt;div&gt;&lt;b&gt;&lt;br&gt;&lt;/b&gt;&lt;/div&gt;&lt;div&gt;&lt;b&gt;&lt;br&gt;&lt;/b&gt;&lt;/div&gt;&lt;div&gt;&lt;b&gt;&lt;br&gt;&lt;/b&gt;&lt;/div&gt;&lt;div&gt;&lt;b&gt;&lt;br&gt;&lt;/b&gt;&lt;/div&gt;&lt;div&gt;&lt;b&gt;&lt;br&gt;&lt;/b&gt;&lt;/div&gt;&lt;div&gt;&lt;b&gt;&lt;br&gt;&lt;/b&gt;&lt;/div&gt;&lt;div&gt;&lt;b&gt;&lt;br&gt;&lt;/b&gt;&lt;/div&gt;&lt;div&gt;&lt;b&gt;&lt;br&gt;&lt;/b&gt;&lt;/div&gt;&lt;div&gt;&lt;b&gt;&lt;br&gt;&lt;/b&gt;&lt;/div&gt;&lt;div&gt;&lt;b&gt;&lt;br&gt;&lt;/b&gt;&lt;/div&gt;&lt;div&gt;&lt;b&gt;&lt;br&gt;&lt;/b&gt;&lt;/div&gt;&lt;div&gt;&lt;b&gt;&lt;br&gt;&lt;/b&gt;&lt;/div&gt;&lt;div&gt;&lt;b&gt;&lt;br&gt;&lt;/b&gt;&lt;/div&gt;&lt;div&gt;&lt;b&gt;&lt;br&gt;&lt;/b&gt;&lt;/div&gt;&lt;div&gt;&lt;b&gt;&lt;br&gt;&lt;/b&gt;&lt;/div&gt;&lt;div&gt;&lt;b&gt;&lt;br&gt;&lt;/b&gt;&lt;/div&gt;&lt;div&gt;&lt;b&gt;&lt;br&gt;&lt;/b&gt;&lt;/div&gt;&lt;div&gt;&lt;b&gt;&lt;br&gt;&lt;/b&gt;&lt;/div&gt;&lt;div&gt;&lt;b&gt;&lt;br&gt;&lt;/b&gt;&lt;/div&gt;&lt;div&gt;&lt;b&gt;&lt;br&gt;&lt;/b&gt;&lt;/div&gt;&lt;div&gt;&lt;b&gt;&lt;br&gt;&lt;/b&gt;&lt;/div&gt;&lt;div&gt;&lt;b&gt;&lt;br&gt;&lt;/b&gt;&lt;/div&gt;&lt;div&gt;&lt;b&gt;&lt;br&gt;&lt;/b&gt;&lt;/div&gt;&lt;div&gt;&lt;b&gt;&lt;br&gt;&lt;/b&gt;&lt;/div&gt;&lt;div&gt;&lt;b&gt;&lt;br&gt;&lt;/b&gt;&lt;/div&gt;&lt;div&gt;&lt;b&gt;&lt;br&gt;&lt;/b&gt;&lt;/div&gt;&lt;div&gt;&lt;b&gt;&lt;br&gt;&lt;/b&gt;&lt;/div&gt;" style="html=1;dropTarget=0;whiteSpace=wrap;verticalAlign=top;" vertex="1" parent="1">
          <mxGeometry x="60" y="540" width="200" height="120" as="geometry" />
        </mxCell>
        <mxCell id="puAjaU_ZfNTtAV1WR_DC-72" value="" style="shape=module;jettyWidth=8;jettyHeight=4;" vertex="1" parent="puAjaU_ZfNTtAV1WR_DC-71">
          <mxGeometry x="1" width="20" height="20" relative="1" as="geometry">
            <mxPoint x="-27" y="7" as="offset" />
          </mxGeometry>
        </mxCell>
        <mxCell id="puAjaU_ZfNTtAV1WR_DC-81" value="«Component»&lt;br&gt;&lt;b&gt;Printer config view&lt;/b&gt;&lt;div&gt;&lt;b&gt;&lt;br&gt;&lt;/b&gt;&lt;/div&gt;&lt;div&gt;&lt;b&gt;&lt;br&gt;&lt;/b&gt;&lt;/div&gt;&lt;div&gt;&lt;b&gt;&lt;br&gt;&lt;/b&gt;&lt;/div&gt;&lt;div&gt;&lt;b&gt;&lt;br&gt;&lt;/b&gt;&lt;/div&gt;&lt;div&gt;&lt;b&gt;&lt;br&gt;&lt;/b&gt;&lt;/div&gt;&lt;div&gt;&lt;b&gt;&lt;br&gt;&lt;/b&gt;&lt;/div&gt;&lt;div&gt;&lt;b&gt;&lt;br&gt;&lt;/b&gt;&lt;/div&gt;&lt;div&gt;&lt;b&gt;&lt;br&gt;&lt;/b&gt;&lt;/div&gt;&lt;div&gt;&lt;b&gt;&lt;br&gt;&lt;/b&gt;&lt;/div&gt;&lt;div&gt;&lt;b&gt;&lt;br&gt;&lt;/b&gt;&lt;/div&gt;&lt;div&gt;&lt;b&gt;&lt;br&gt;&lt;/b&gt;&lt;/div&gt;&lt;div&gt;&lt;b&gt;&lt;br&gt;&lt;/b&gt;&lt;/div&gt;&lt;div&gt;&lt;b&gt;&lt;br&gt;&lt;/b&gt;&lt;/div&gt;" style="html=1;dropTarget=0;whiteSpace=wrap;verticalAlign=top;" vertex="1" parent="1">
          <mxGeometry x="60.74" y="240" width="200" height="280" as="geometry" />
        </mxCell>
        <mxCell id="puAjaU_ZfNTtAV1WR_DC-82" value="" style="shape=module;jettyWidth=8;jettyHeight=4;" vertex="1" parent="puAjaU_ZfNTtAV1WR_DC-81">
          <mxGeometry x="1" width="20" height="20" relative="1" as="geometry">
            <mxPoint x="-27" y="7" as="offset" />
          </mxGeometry>
        </mxCell>
        <mxCell id="puAjaU_ZfNTtAV1WR_DC-83" value="«Component»&lt;br&gt;&lt;b&gt;Add printer&lt;/b&gt;" style="html=1;dropTarget=0;whiteSpace=wrap;" vertex="1" parent="1">
          <mxGeometry x="70.38" y="370" width="160" height="60" as="geometry" />
        </mxCell>
        <mxCell id="puAjaU_ZfNTtAV1WR_DC-84" value="" style="shape=module;jettyWidth=8;jettyHeight=4;" vertex="1" parent="puAjaU_ZfNTtAV1WR_DC-83">
          <mxGeometry x="1" width="20" height="20" relative="1" as="geometry">
            <mxPoint x="-27" y="7" as="offset" />
          </mxGeometry>
        </mxCell>
        <mxCell id="puAjaU_ZfNTtAV1WR_DC-87" value="«Component»&lt;br&gt;&lt;div&gt;&lt;b&gt;View history view&lt;/b&gt;&lt;/div&gt;&lt;div&gt;&lt;b&gt;&lt;br&gt;&lt;/b&gt;&lt;/div&gt;&lt;div&gt;&lt;b&gt;&lt;br&gt;&lt;/b&gt;&lt;/div&gt;&lt;div&gt;&lt;b&gt;&lt;br&gt;&lt;/b&gt;&lt;/div&gt;&lt;div&gt;&lt;b&gt;&lt;br&gt;&lt;/b&gt;&lt;/div&gt;&lt;div&gt;&lt;b&gt;&lt;br&gt;&lt;/b&gt;&lt;/div&gt;&lt;div&gt;&lt;b&gt;&lt;br&gt;&lt;/b&gt;&lt;/div&gt;&lt;div&gt;&lt;b&gt;&lt;br&gt;&lt;/b&gt;&lt;/div&gt;&lt;div&gt;&lt;b&gt;&lt;br&gt;&lt;/b&gt;&lt;/div&gt;&lt;div&gt;&lt;b&gt;&lt;br&gt;&lt;/b&gt;&lt;/div&gt;&lt;div&gt;&lt;b&gt;&lt;br&gt;&lt;/b&gt;&lt;/div&gt;&lt;div&gt;&lt;b&gt;&lt;br&gt;&lt;/b&gt;&lt;/div&gt;&lt;div&gt;&lt;b&gt;&lt;br&gt;&lt;/b&gt;&lt;/div&gt;&lt;div&gt;&lt;b&gt;&lt;br&gt;&lt;/b&gt;&lt;/div&gt;&lt;div&gt;&lt;b&gt;&lt;br&gt;&lt;/b&gt;&lt;/div&gt;&lt;div&gt;&lt;b&gt;&lt;br&gt;&lt;/b&gt;&lt;/div&gt;&lt;div&gt;&lt;b&gt;&lt;br&gt;&lt;/b&gt;&lt;/div&gt;&lt;div&gt;&lt;b&gt;&lt;br&gt;&lt;/b&gt;&lt;/div&gt;&lt;div&gt;&lt;b&gt;&lt;br&gt;&lt;/b&gt;&lt;/div&gt;&lt;div&gt;&lt;br&gt;&lt;/div&gt;" style="html=1;dropTarget=0;whiteSpace=wrap;verticalAlign=top;" vertex="1" parent="1">
          <mxGeometry x="60.370000000000005" y="-120" width="200" height="200" as="geometry" />
        </mxCell>
        <mxCell id="puAjaU_ZfNTtAV1WR_DC-88" value="" style="shape=module;jettyWidth=8;jettyHeight=4;" vertex="1" parent="puAjaU_ZfNTtAV1WR_DC-87">
          <mxGeometry x="1" width="20" height="20" relative="1" as="geometry">
            <mxPoint x="-27" y="7" as="offset" />
          </mxGeometry>
        </mxCell>
        <mxCell id="puAjaU_ZfNTtAV1WR_DC-89" value="«Component»&lt;br&gt;&lt;b&gt;Display students history&lt;/b&gt;" style="html=1;dropTarget=0;whiteSpace=wrap;" vertex="1" parent="1">
          <mxGeometry x="70.38000000000001" y="-80" width="160" height="60" as="geometry" />
        </mxCell>
        <mxCell id="puAjaU_ZfNTtAV1WR_DC-90" value="" style="shape=module;jettyWidth=8;jettyHeight=4;" vertex="1" parent="puAjaU_ZfNTtAV1WR_DC-89">
          <mxGeometry x="1" width="20" height="20" relative="1" as="geometry">
            <mxPoint x="-27" y="7" as="offset" />
          </mxGeometry>
        </mxCell>
        <mxCell id="puAjaU_ZfNTtAV1WR_DC-91" value="«Component»&lt;br&gt;&lt;b&gt;Display printers history&lt;/b&gt;" style="html=1;dropTarget=0;whiteSpace=wrap;" vertex="1" parent="1">
          <mxGeometry x="70.38000000000001" width="160" height="60" as="geometry" />
        </mxCell>
        <mxCell id="puAjaU_ZfNTtAV1WR_DC-92" value="" style="shape=module;jettyWidth=8;jettyHeight=4;" vertex="1" parent="puAjaU_ZfNTtAV1WR_DC-91">
          <mxGeometry x="1" width="20" height="20" relative="1" as="geometry">
            <mxPoint x="-27" y="7" as="offset" />
          </mxGeometry>
        </mxCell>
        <mxCell id="puAjaU_ZfNTtAV1WR_DC-95" value="«Component»&lt;br&gt;&lt;b&gt;Page config view&lt;/b&gt;" style="html=1;dropTarget=0;whiteSpace=wrap;verticalAlign=top;" vertex="1" parent="1">
          <mxGeometry x="60.370000000000005" y="100" width="200" height="120" as="geometry" />
        </mxCell>
        <mxCell id="puAjaU_ZfNTtAV1WR_DC-96" value="" style="shape=module;jettyWidth=8;jettyHeight=4;" vertex="1" parent="puAjaU_ZfNTtAV1WR_DC-95">
          <mxGeometry x="1" width="20" height="27" relative="1" as="geometry">
            <mxPoint x="-27" y="7" as="offset" />
          </mxGeometry>
        </mxCell>
        <mxCell id="puAjaU_ZfNTtAV1WR_DC-97" value="«Component»&lt;br&gt;&lt;b&gt;Purchase view&lt;/b&gt;" style="html=1;dropTarget=0;whiteSpace=wrap;verticalAlign=top;" vertex="1" parent="1">
          <mxGeometry x="59.62" y="-620" width="200.38" height="180" as="geometry" />
        </mxCell>
        <mxCell id="puAjaU_ZfNTtAV1WR_DC-98" value="" style="shape=module;jettyWidth=8;jettyHeight=4;" vertex="1" parent="puAjaU_ZfNTtAV1WR_DC-97">
          <mxGeometry x="1" width="20" height="27" relative="1" as="geometry">
            <mxPoint x="-27" y="7" as="offset" />
          </mxGeometry>
        </mxCell>
        <mxCell id="puAjaU_ZfNTtAV1WR_DC-99" value="«Component»&lt;br&gt;&lt;b&gt;Print&lt;/b&gt;" style="html=1;dropTarget=0;whiteSpace=wrap;" vertex="1" parent="1">
          <mxGeometry x="70.38" y="-710" width="160" height="60" as="geometry" />
        </mxCell>
        <mxCell id="puAjaU_ZfNTtAV1WR_DC-100" value="" style="shape=module;jettyWidth=8;jettyHeight=4;" vertex="1" parent="puAjaU_ZfNTtAV1WR_DC-99">
          <mxGeometry x="1" width="20" height="20" relative="1" as="geometry">
            <mxPoint x="-27" y="7" as="offset" />
          </mxGeometry>
        </mxCell>
        <mxCell id="puAjaU_ZfNTtAV1WR_DC-101" value="«Component»&lt;br&gt;&lt;b&gt;Select Printing &lt;br&gt;Properties&lt;br&gt;&lt;/b&gt;" style="html=1;dropTarget=0;whiteSpace=wrap;" vertex="1" parent="1">
          <mxGeometry x="70" y="-780" width="160.38" height="60" as="geometry" />
        </mxCell>
        <mxCell id="puAjaU_ZfNTtAV1WR_DC-102" value="" style="shape=module;jettyWidth=8;jettyHeight=4;" vertex="1" parent="puAjaU_ZfNTtAV1WR_DC-101">
          <mxGeometry x="1" width="20" height="20" relative="1" as="geometry">
            <mxPoint x="-27" y="7" as="offset" />
          </mxGeometry>
        </mxCell>
        <mxCell id="puAjaU_ZfNTtAV1WR_DC-103" value="«Component»&lt;br&gt;&lt;b&gt;Select printers&lt;/b&gt;" style="html=1;dropTarget=0;whiteSpace=wrap;" vertex="1" parent="1">
          <mxGeometry x="70" y="-850.25" width="160" height="60.5" as="geometry" />
        </mxCell>
        <mxCell id="puAjaU_ZfNTtAV1WR_DC-104" value="" style="shape=module;jettyWidth=8;jettyHeight=4;" vertex="1" parent="puAjaU_ZfNTtAV1WR_DC-103">
          <mxGeometry x="1" width="20" height="20" relative="1" as="geometry">
            <mxPoint x="-27" y="7" as="offset" />
          </mxGeometry>
        </mxCell>
        <mxCell id="nfsDe8eXNVFqQ5E389Qe-3" value="" style="shape=providedRequiredInterface;html=1;verticalLabelPosition=bottom;sketch=0;" vertex="1" parent="1">
          <mxGeometry x="440" y="-890" width="20" height="20" as="geometry" />
        </mxCell>
        <mxCell id="puAjaU_ZfNTtAV1WR_DC-108" value="" style="shape=providedRequiredInterface;html=1;verticalLabelPosition=bottom;sketch=0;" vertex="1" parent="1">
          <mxGeometry x="440" y="-789.75" width="20" height="20" as="geometry" />
        </mxCell>
        <mxCell id="puAjaU_ZfNTtAV1WR_DC-114" style="edgeStyle=orthogonalEdgeStyle;rounded=0;orthogonalLoop=1;jettySize=auto;html=1;exitX=1;exitY=0.5;exitDx=0;exitDy=0;exitPerimeter=0;endArrow=none;endFill=0;entryX=0;entryY=0.5;entryDx=0;entryDy=0;" edge="1" parent="1" source="tfpIiOzo_Po5P9u3w-RI-136" target="tfpIiOzo_Po5P9u3w-RI-88">
          <mxGeometry relative="1" as="geometry">
            <Array as="points" />
          </mxGeometry>
        </mxCell>
        <mxCell id="puAjaU_ZfNTtAV1WR_DC-112" value="" style="shape=providedRequiredInterface;html=1;verticalLabelPosition=bottom;sketch=0;" vertex="1" parent="1">
          <mxGeometry x="440" y="-680" width="20" height="20" as="geometry" />
        </mxCell>
        <mxCell id="puAjaU_ZfNTtAV1WR_DC-113" style="edgeStyle=orthogonalEdgeStyle;rounded=0;orthogonalLoop=1;jettySize=auto;html=1;entryX=0;entryY=0.5;entryDx=0;entryDy=0;entryPerimeter=0;endArrow=none;endFill=0;" edge="1" parent="1" source="tfpIiOzo_Po5P9u3w-RI-124" target="puAjaU_ZfNTtAV1WR_DC-112">
          <mxGeometry relative="1" as="geometry">
            <mxPoint x="290" y="-670.42" as="sourcePoint" />
            <mxPoint x="500" y="-670.42" as="targetPoint" />
            <Array as="points" />
          </mxGeometry>
        </mxCell>
        <mxCell id="puAjaU_ZfNTtAV1WR_DC-117" style="edgeStyle=orthogonalEdgeStyle;rounded=0;orthogonalLoop=1;jettySize=auto;html=1;exitX=1;exitY=0.5;exitDx=0;exitDy=0;exitPerimeter=0;endArrow=none;endFill=0;" edge="1" parent="1" source="puAjaU_ZfNTtAV1WR_DC-115" target="CY8S7bmpGQMlvTJj6TYs-64">
          <mxGeometry relative="1" as="geometry">
            <Array as="points">
              <mxPoint x="900" y="-670" />
              <mxPoint x="900" y="-542" />
            </Array>
          </mxGeometry>
        </mxCell>
        <mxCell id="puAjaU_ZfNTtAV1WR_DC-115" value="" style="shape=providedRequiredInterface;html=1;verticalLabelPosition=bottom;sketch=0;" vertex="1" parent="1">
          <mxGeometry x="860" y="-680" width="20" height="20" as="geometry" />
        </mxCell>
        <mxCell id="puAjaU_ZfNTtAV1WR_DC-118" value="«Component»&lt;br&gt;&lt;b&gt;Select page numbers&lt;/b&gt;" style="html=1;dropTarget=0;whiteSpace=wrap;" vertex="1" parent="1">
          <mxGeometry x="70.38" y="-580" width="160" height="60" as="geometry" />
        </mxCell>
        <mxCell id="puAjaU_ZfNTtAV1WR_DC-119" value="" style="shape=module;jettyWidth=8;jettyHeight=4;" vertex="1" parent="puAjaU_ZfNTtAV1WR_DC-118">
          <mxGeometry x="1" width="20" height="20" relative="1" as="geometry">
            <mxPoint x="-27" y="7" as="offset" />
          </mxGeometry>
        </mxCell>
        <mxCell id="puAjaU_ZfNTtAV1WR_DC-133" style="edgeStyle=orthogonalEdgeStyle;rounded=0;orthogonalLoop=1;jettySize=auto;html=1;exitX=1;exitY=0.5;exitDx=0;exitDy=0;endArrow=none;endFill=0;entryX=0;entryY=0.5;entryDx=0;entryDy=0;entryPerimeter=0;" edge="1" parent="1" source="tfpIiOzo_Po5P9u3w-RI-145" target="puAjaU_ZfNTtAV1WR_DC-130">
          <mxGeometry relative="1" as="geometry" />
        </mxCell>
        <mxCell id="puAjaU_ZfNTtAV1WR_DC-121" value="«Component»&lt;br&gt;&lt;b&gt;Purchase&lt;/b&gt;" style="html=1;dropTarget=0;whiteSpace=wrap;" vertex="1" parent="1">
          <mxGeometry x="70.38" y="-510" width="160" height="60" as="geometry" />
        </mxCell>
        <mxCell id="puAjaU_ZfNTtAV1WR_DC-122" value="" style="shape=module;jettyWidth=8;jettyHeight=4;" vertex="1" parent="puAjaU_ZfNTtAV1WR_DC-121">
          <mxGeometry x="1" width="20" height="20" relative="1" as="geometry">
            <mxPoint x="-27" y="7" as="offset" />
          </mxGeometry>
        </mxCell>
        <mxCell id="puAjaU_ZfNTtAV1WR_DC-127" value="«Component»&lt;br&gt;&lt;b&gt;Update page&lt;/b&gt;" style="html=1;dropTarget=0;whiteSpace=wrap;" vertex="1" parent="1">
          <mxGeometry x="561" y="-572" width="160" height="52" as="geometry" />
        </mxCell>
        <mxCell id="puAjaU_ZfNTtAV1WR_DC-128" value="" style="shape=module;jettyWidth=8;jettyHeight=4;" vertex="1" parent="puAjaU_ZfNTtAV1WR_DC-127">
          <mxGeometry x="1" width="20" height="27" relative="1" as="geometry">
            <mxPoint x="-27" y="7" as="offset" />
          </mxGeometry>
        </mxCell>
        <mxCell id="puAjaU_ZfNTtAV1WR_DC-132" style="edgeStyle=orthogonalEdgeStyle;rounded=0;orthogonalLoop=1;jettySize=auto;html=1;exitX=1;exitY=0.5;exitDx=0;exitDy=0;exitPerimeter=0;entryX=0;entryY=0.5;entryDx=0;entryDy=0;endArrow=none;endFill=0;" edge="1" parent="1" source="tfpIiOzo_Po5P9u3w-RI-147" target="tfpIiOzo_Po5P9u3w-RI-109">
          <mxGeometry relative="1" as="geometry" />
        </mxCell>
        <mxCell id="puAjaU_ZfNTtAV1WR_DC-129" value="" style="shape=providedRequiredInterface;html=1;verticalLabelPosition=bottom;sketch=0;" vertex="1" parent="1">
          <mxGeometry x="400" y="-550" width="20" height="20" as="geometry" />
        </mxCell>
        <mxCell id="puAjaU_ZfNTtAV1WR_DC-134" style="edgeStyle=orthogonalEdgeStyle;rounded=0;orthogonalLoop=1;jettySize=auto;html=1;exitX=1;exitY=0.5;exitDx=0;exitDy=0;exitPerimeter=0;entryX=0;entryY=0.5;entryDx=0;entryDy=0;endArrow=none;endFill=0;" edge="1" parent="1" source="tfpIiOzo_Po5P9u3w-RI-149" target="tfpIiOzo_Po5P9u3w-RI-87">
          <mxGeometry relative="1" as="geometry" />
        </mxCell>
        <mxCell id="puAjaU_ZfNTtAV1WR_DC-130" value="" style="shape=providedRequiredInterface;html=1;verticalLabelPosition=bottom;sketch=0;" vertex="1" parent="1">
          <mxGeometry x="400" y="-476" width="20" height="20" as="geometry" />
        </mxCell>
        <mxCell id="puAjaU_ZfNTtAV1WR_DC-131" style="edgeStyle=orthogonalEdgeStyle;rounded=0;orthogonalLoop=1;jettySize=auto;html=1;exitX=1;exitY=0.5;exitDx=0;exitDy=0;entryX=0;entryY=0.5;entryDx=0;entryDy=0;entryPerimeter=0;endArrow=none;endFill=0;" edge="1" parent="1" source="tfpIiOzo_Po5P9u3w-RI-140" target="puAjaU_ZfNTtAV1WR_DC-129">
          <mxGeometry relative="1" as="geometry">
            <Array as="points">
              <mxPoint x="290" y="-540" />
              <mxPoint x="490" y="-540" />
            </Array>
          </mxGeometry>
        </mxCell>
        <mxCell id="puAjaU_ZfNTtAV1WR_DC-137" value="&lt;br&gt;«Component»&lt;b&gt;&lt;br&gt;Display summary of printed page number&lt;/b&gt;" style="html=1;dropTarget=0;whiteSpace=wrap;" vertex="1" parent="1">
          <mxGeometry x="70.00000000000001" y="-380" width="160" height="70" as="geometry" />
        </mxCell>
        <mxCell id="puAjaU_ZfNTtAV1WR_DC-138" value="" style="shape=module;jettyWidth=8;jettyHeight=4;" vertex="1" parent="puAjaU_ZfNTtAV1WR_DC-137">
          <mxGeometry x="1" width="20" height="27" relative="1" as="geometry">
            <mxPoint x="-27" y="7" as="offset" />
          </mxGeometry>
        </mxCell>
        <mxCell id="puAjaU_ZfNTtAV1WR_DC-139" value="&lt;div&gt;&lt;span style=&quot;color: rgba(0, 0, 0, 0); font-family: monospace; font-size: 0px; text-align: start; text-wrap: nowrap; background-color: initial;&quot;&gt;%3CmxGraphModel%3E%3Croot%3E%3CmxCell%20id%3D%220%22%2F%3E%3CmxCell%20id%3D%221%22%20parent%3D%220%22%2F%3E%3CmxCell%20id%3D%222%22%20value%3D%22%22%20style%3D%22whiteSpace%3Dwrap%3Bhtml%3D1%3Baspect%3Dfixed%3B%22%20vertex%3D%221%22%20parent%3D%221%22%3E%3CmxGeometry%20x%3D%22280%22%20y%3D%22-476%22%20width%3D%2220%22%20height%3D%2220%22%20as%3D%22geometry%22%2F%3E%3C%2FmxCell%3E%3C%2Froot%3E%3C%2FmxGraphModel%3E&lt;/span&gt;&lt;span style=&quot;background-color: initial;&quot;&gt;«Component»&lt;/span&gt;&lt;br&gt;&lt;/div&gt;&lt;b&gt;Get summary of printed page number&lt;/b&gt;" style="html=1;dropTarget=0;whiteSpace=wrap;" vertex="1" parent="1">
          <mxGeometry x="558.75" y="-370" width="160" height="70" as="geometry" />
        </mxCell>
        <mxCell id="puAjaU_ZfNTtAV1WR_DC-140" value="" style="shape=module;jettyWidth=8;jettyHeight=4;" vertex="1" parent="puAjaU_ZfNTtAV1WR_DC-139">
          <mxGeometry x="1" width="20" height="20" relative="1" as="geometry">
            <mxPoint x="-27" y="7" as="offset" />
          </mxGeometry>
        </mxCell>
        <mxCell id="puAjaU_ZfNTtAV1WR_DC-145" style="edgeStyle=orthogonalEdgeStyle;rounded=0;orthogonalLoop=1;jettySize=auto;html=1;exitX=1;exitY=0.5;exitDx=0;exitDy=0;exitPerimeter=0;endArrow=none;endFill=0;entryX=1;entryY=0.5;entryDx=0;entryDy=0;" edge="1" parent="1" source="tfpIiOzo_Po5P9u3w-RI-162" target="tfpIiOzo_Po5P9u3w-RI-151">
          <mxGeometry relative="1" as="geometry">
            <Array as="points" />
          </mxGeometry>
        </mxCell>
        <mxCell id="puAjaU_ZfNTtAV1WR_DC-143" value="" style="shape=providedRequiredInterface;html=1;verticalLabelPosition=bottom;sketch=0;rotation=180;" vertex="1" parent="1">
          <mxGeometry x="400" y="-340" width="20" height="20" as="geometry" />
        </mxCell>
        <mxCell id="puAjaU_ZfNTtAV1WR_DC-144" style="edgeStyle=orthogonalEdgeStyle;rounded=0;orthogonalLoop=1;jettySize=auto;html=1;exitX=0;exitY=0.5;exitDx=0;exitDy=0;entryX=0;entryY=0.5;entryDx=0;entryDy=0;entryPerimeter=0;endArrow=none;endFill=0;" edge="1" parent="1" source="tfpIiOzo_Po5P9u3w-RI-155" target="puAjaU_ZfNTtAV1WR_DC-143">
          <mxGeometry relative="1" as="geometry">
            <Array as="points" />
          </mxGeometry>
        </mxCell>
        <mxCell id="puAjaU_ZfNTtAV1WR_DC-146" value="" style="shape=providedRequiredInterface;html=1;verticalLabelPosition=bottom;sketch=0;rotation=180;" vertex="1" parent="1">
          <mxGeometry x="400" y="-260" width="20" height="20" as="geometry" />
        </mxCell>
        <mxCell id="puAjaU_ZfNTtAV1WR_DC-171" style="edgeStyle=orthogonalEdgeStyle;rounded=0;orthogonalLoop=1;jettySize=auto;html=1;entryX=0;entryY=0.5;entryDx=0;entryDy=0;endArrow=none;endFill=0;" edge="1" parent="1" target="tfpIiOzo_Po5P9u3w-RI-40">
          <mxGeometry relative="1" as="geometry">
            <Array as="points">
              <mxPoint x="840" y="-260" />
              <mxPoint x="840" y="-460" />
            </Array>
            <mxPoint x="840" y="-260" as="sourcePoint" />
          </mxGeometry>
        </mxCell>
        <mxCell id="puAjaU_ZfNTtAV1WR_DC-161" value="" style="shape=providedRequiredInterface;html=1;verticalLabelPosition=bottom;sketch=0;rotation=180;" vertex="1" parent="1">
          <mxGeometry x="880" y="-510" width="20" height="20" as="geometry" />
        </mxCell>
        <mxCell id="puAjaU_ZfNTtAV1WR_DC-167" value="" style="whiteSpace=wrap;html=1;aspect=fixed;" vertex="1" parent="1">
          <mxGeometry x="990" y="-430" width="20" height="20" as="geometry" />
        </mxCell>
        <mxCell id="puAjaU_ZfNTtAV1WR_DC-168" value="" style="line;strokeWidth=1;fillColor=none;align=left;verticalAlign=middle;spacingTop=-1;spacingLeft=3;spacingRight=3;rotatable=0;labelPosition=right;points=[];portConstraint=eastwest;strokeColor=inherit;" vertex="1" parent="1">
          <mxGeometry x="1010" y="-424" width="20" height="8" as="geometry" />
        </mxCell>
        <mxCell id="puAjaU_ZfNTtAV1WR_DC-170" style="edgeStyle=orthogonalEdgeStyle;rounded=0;orthogonalLoop=1;jettySize=auto;html=1;entryX=1;entryY=0.5;entryDx=0;entryDy=0;entryPerimeter=0;endArrow=none;endFill=0;exitX=1;exitY=0.5;exitDx=0;exitDy=0;" edge="1" parent="1" source="tfpIiOzo_Po5P9u3w-RI-195" target="puAjaU_ZfNTtAV1WR_DC-157">
          <mxGeometry relative="1" as="geometry">
            <mxPoint x="720" y="-260" as="sourcePoint" />
            <Array as="points">
              <mxPoint x="780" y="-250" />
              <mxPoint x="780" y="-250" />
            </Array>
          </mxGeometry>
        </mxCell>
        <mxCell id="puAjaU_ZfNTtAV1WR_DC-172" style="edgeStyle=orthogonalEdgeStyle;rounded=0;orthogonalLoop=1;jettySize=auto;html=1;endArrow=none;endFill=0;entryX=1;entryY=0.5;entryDx=0;entryDy=0;entryPerimeter=0;" edge="1" parent="1" source="tfpIiOzo_Po5P9u3w-RI-189" target="puAjaU_ZfNTtAV1WR_DC-161">
          <mxGeometry relative="1" as="geometry">
            <mxPoint x="719" y="-330" as="sourcePoint" />
            <mxPoint x="880" y="-500" as="targetPoint" />
            <Array as="points">
              <mxPoint x="820" y="-330" />
              <mxPoint x="820" y="-500" />
            </Array>
          </mxGeometry>
        </mxCell>
        <mxCell id="puAjaU_ZfNTtAV1WR_DC-178" value="«Component»&lt;br&gt;&lt;b&gt;Select Configuration&lt;/b&gt;" style="html=1;dropTarget=0;whiteSpace=wrap;" vertex="1" parent="1">
          <mxGeometry x="70.38000000000001" y="140" width="160" height="60" as="geometry" />
        </mxCell>
        <mxCell id="puAjaU_ZfNTtAV1WR_DC-179" value="" style="shape=module;jettyWidth=8;jettyHeight=4;" vertex="1" parent="puAjaU_ZfNTtAV1WR_DC-178">
          <mxGeometry x="1" width="20" height="20" relative="1" as="geometry">
            <mxPoint x="-27" y="7" as="offset" />
          </mxGeometry>
        </mxCell>
        <mxCell id="puAjaU_ZfNTtAV1WR_DC-188" value="«Component»&lt;br&gt;&lt;b&gt;Display reports&lt;/b&gt;" style="html=1;dropTarget=0;whiteSpace=wrap;" vertex="1" parent="1">
          <mxGeometry x="70.38" y="580" width="160" height="60" as="geometry" />
        </mxCell>
        <mxCell id="puAjaU_ZfNTtAV1WR_DC-189" value="" style="shape=module;jettyWidth=8;jettyHeight=4;" vertex="1" parent="puAjaU_ZfNTtAV1WR_DC-188">
          <mxGeometry x="1" width="20" height="20" relative="1" as="geometry">
            <mxPoint x="-27" y="7" as="offset" />
          </mxGeometry>
        </mxCell>
        <mxCell id="puAjaU_ZfNTtAV1WR_DC-198" value="«Component»&lt;br&gt;&lt;b&gt;Change printer&#39;s state&lt;/b&gt;" style="html=1;dropTarget=0;whiteSpace=wrap;" vertex="1" parent="1">
          <mxGeometry x="70.38000000000001" y="440" width="160" height="60" as="geometry" />
        </mxCell>
        <mxCell id="puAjaU_ZfNTtAV1WR_DC-199" value="" style="shape=module;jettyWidth=8;jettyHeight=4;" vertex="1" parent="puAjaU_ZfNTtAV1WR_DC-198">
          <mxGeometry x="1" width="20" height="20" relative="1" as="geometry">
            <mxPoint x="-27" y="7" as="offset" />
          </mxGeometry>
        </mxCell>
        <mxCell id="puAjaU_ZfNTtAV1WR_DC-200" value="«Component»&lt;br&gt;&lt;b&gt;Display printer information&lt;/b&gt;&lt;div&gt;&lt;b&gt;&lt;br&gt;&lt;/b&gt;&lt;/div&gt;" style="html=1;dropTarget=0;whiteSpace=wrap;" vertex="1" parent="1">
          <mxGeometry x="70.38" y="280" width="160" height="80" as="geometry" />
        </mxCell>
        <mxCell id="puAjaU_ZfNTtAV1WR_DC-201" value="" style="shape=module;jettyWidth=8;jettyHeight=4;" vertex="1" parent="puAjaU_ZfNTtAV1WR_DC-200">
          <mxGeometry x="1" width="20" height="20" relative="1" as="geometry">
            <mxPoint x="-27" y="7" as="offset" />
          </mxGeometry>
        </mxCell>
        <mxCell id="puAjaU_ZfNTtAV1WR_DC-202" value="«Component»&lt;br&gt;&lt;b&gt;Get printer information&lt;/b&gt;" style="html=1;dropTarget=0;whiteSpace=wrap;" vertex="1" parent="1">
          <mxGeometry x="561.5" y="290" width="160" height="70" as="geometry" />
        </mxCell>
        <mxCell id="puAjaU_ZfNTtAV1WR_DC-203" value="" style="shape=module;jettyWidth=8;jettyHeight=4;" vertex="1" parent="puAjaU_ZfNTtAV1WR_DC-202">
          <mxGeometry x="1" width="20" height="20" relative="1" as="geometry">
            <mxPoint x="-27" y="7" as="offset" />
          </mxGeometry>
        </mxCell>
        <mxCell id="puAjaU_ZfNTtAV1WR_DC-204" value="«Component»&lt;br&gt;&lt;b&gt;Add printer&lt;/b&gt;" style="html=1;dropTarget=0;whiteSpace=wrap;" vertex="1" parent="1">
          <mxGeometry x="562" y="370" width="160.5" height="70" as="geometry" />
        </mxCell>
        <mxCell id="puAjaU_ZfNTtAV1WR_DC-205" value="" style="shape=module;jettyWidth=8;jettyHeight=4;" vertex="1" parent="puAjaU_ZfNTtAV1WR_DC-204">
          <mxGeometry x="1" width="20" height="20" relative="1" as="geometry">
            <mxPoint x="-27" y="7" as="offset" />
          </mxGeometry>
        </mxCell>
        <mxCell id="puAjaU_ZfNTtAV1WR_DC-206" value="&lt;div&gt;&lt;br&gt;&lt;/div&gt;«Component»&lt;br&gt;&lt;b&gt;Change printer&#39;s state&lt;/b&gt;" style="html=1;dropTarget=0;whiteSpace=wrap;" vertex="1" parent="1">
          <mxGeometry x="562" y="450" width="160.5" height="60" as="geometry" />
        </mxCell>
        <mxCell id="puAjaU_ZfNTtAV1WR_DC-207" value="" style="shape=module;jettyWidth=8;jettyHeight=4;" vertex="1" parent="puAjaU_ZfNTtAV1WR_DC-206">
          <mxGeometry x="1" width="20" height="20" relative="1" as="geometry">
            <mxPoint x="-27" y="7" as="offset" />
          </mxGeometry>
        </mxCell>
        <mxCell id="puAjaU_ZfNTtAV1WR_DC-245" value="" style="shape=providedRequiredInterface;html=1;verticalLabelPosition=bottom;sketch=0;rotation=180;" vertex="1" parent="1">
          <mxGeometry x="400" y="610" width="20" height="20" as="geometry" />
        </mxCell>
        <mxCell id="puAjaU_ZfNTtAV1WR_DC-246" style="edgeStyle=orthogonalEdgeStyle;rounded=0;orthogonalLoop=1;jettySize=auto;html=1;exitX=1;exitY=0.5;exitDx=0;exitDy=0;entryX=1;entryY=0.5;entryDx=0;entryDy=0;entryPerimeter=0;endArrow=none;endFill=0;" edge="1" parent="1" source="tfpIiOzo_Po5P9u3w-RI-269" target="puAjaU_ZfNTtAV1WR_DC-245">
          <mxGeometry relative="1" as="geometry" />
        </mxCell>
        <mxCell id="CY8S7bmpGQMlvTJj6TYs-46" value="«Component»&lt;br&gt;&lt;b&gt;Log Database&lt;/b&gt;" style="html=1;dropTarget=0;whiteSpace=wrap;" vertex="1" parent="1">
          <mxGeometry x="1039" y="-562" width="160" height="160" as="geometry" />
        </mxCell>
        <mxCell id="CY8S7bmpGQMlvTJj6TYs-47" value="" style="shape=module;jettyWidth=8;jettyHeight=4;" vertex="1" parent="CY8S7bmpGQMlvTJj6TYs-46">
          <mxGeometry x="1" width="20" height="20" relative="1" as="geometry">
            <mxPoint x="-27" y="7" as="offset" />
          </mxGeometry>
        </mxCell>
        <mxCell id="CY8S7bmpGQMlvTJj6TYs-62" value="" style="whiteSpace=wrap;html=1;aspect=fixed;" vertex="1" parent="1">
          <mxGeometry x="1030" y="-552" width="20" height="20" as="geometry" />
        </mxCell>
        <mxCell id="CY8S7bmpGQMlvTJj6TYs-63" value="" style="whiteSpace=wrap;html=1;aspect=fixed;" vertex="1" parent="1">
          <mxGeometry x="1030" y="-510" width="20" height="20" as="geometry" />
        </mxCell>
        <mxCell id="puAjaU_ZfNTtAV1WR_DC-166" value="" style="whiteSpace=wrap;html=1;aspect=fixed;" vertex="1" parent="1">
          <mxGeometry x="1030" y="-430" width="20" height="20" as="geometry" />
        </mxCell>
        <mxCell id="tfpIiOzo_Po5P9u3w-RI-32" value="" style="endArrow=none;html=1;rounded=0;exitX=1;exitY=0.5;exitDx=0;exitDy=0;" edge="1" parent="1" source="tfpIiOzo_Po5P9u3w-RI-208">
          <mxGeometry width="50" height="50" relative="1" as="geometry">
            <mxPoint x="721" y="-40.42" as="sourcePoint" />
            <mxPoint x="840" y="-40.42" as="targetPoint" />
          </mxGeometry>
        </mxCell>
        <mxCell id="tfpIiOzo_Po5P9u3w-RI-37" value="«Component»&lt;br&gt;&lt;b&gt;Get system&lt;br&gt;printing history&lt;/b&gt;" style="html=1;dropTarget=0;whiteSpace=wrap;" vertex="1" parent="1">
          <mxGeometry x="562" width="159" height="60" as="geometry" />
        </mxCell>
        <mxCell id="tfpIiOzo_Po5P9u3w-RI-38" value="" style="shape=module;jettyWidth=8;jettyHeight=4;" vertex="1" parent="tfpIiOzo_Po5P9u3w-RI-37">
          <mxGeometry x="1" width="20" height="20" relative="1" as="geometry">
            <mxPoint x="-27" y="7" as="offset" />
          </mxGeometry>
        </mxCell>
        <mxCell id="tfpIiOzo_Po5P9u3w-RI-40" value="" style="whiteSpace=wrap;html=1;aspect=fixed;" vertex="1" parent="1">
          <mxGeometry x="990" y="-470" width="20" height="20" as="geometry" />
        </mxCell>
        <mxCell id="tfpIiOzo_Po5P9u3w-RI-41" value="" style="whiteSpace=wrap;html=1;aspect=fixed;" vertex="1" parent="1">
          <mxGeometry x="1030" y="-470" width="20" height="20" as="geometry" />
        </mxCell>
        <mxCell id="tfpIiOzo_Po5P9u3w-RI-42" value="" style="line;strokeWidth=1;fillColor=none;align=left;verticalAlign=middle;spacingTop=-1;spacingLeft=3;spacingRight=3;rotatable=0;labelPosition=right;points=[];portConstraint=eastwest;strokeColor=inherit;" vertex="1" parent="1">
          <mxGeometry x="1010" y="-464" width="20" height="8" as="geometry" />
        </mxCell>
        <mxCell id="tfpIiOzo_Po5P9u3w-RI-44" value="" style="endArrow=none;html=1;rounded=0;exitX=0.5;exitY=0;exitDx=0;exitDy=0;" edge="1" parent="1" source="tfpIiOzo_Po5P9u3w-RI-216">
          <mxGeometry width="50" height="50" relative="1" as="geometry">
            <mxPoint x="720.5" y="40" as="sourcePoint" />
            <mxPoint x="880.5" y="40" as="targetPoint" />
          </mxGeometry>
        </mxCell>
        <mxCell id="tfpIiOzo_Po5P9u3w-RI-45" value="" style="endArrow=none;html=1;rounded=0;entryX=0.521;entryY=0.032;entryDx=0;entryDy=0;entryPerimeter=0;" edge="1" parent="1" target="tfpIiOzo_Po5P9u3w-RI-46">
          <mxGeometry width="50" height="50" relative="1" as="geometry">
            <mxPoint x="880" y="40" as="sourcePoint" />
            <mxPoint x="880" y="-420" as="targetPoint" />
          </mxGeometry>
        </mxCell>
        <mxCell id="tfpIiOzo_Po5P9u3w-RI-46" value="" style="shape=providedRequiredInterface;html=1;verticalLabelPosition=bottom;sketch=0;rotation=180;" vertex="1" parent="1">
          <mxGeometry x="870" y="-430" width="20" height="20" as="geometry" />
        </mxCell>
        <mxCell id="tfpIiOzo_Po5P9u3w-RI-47" value="" style="endArrow=none;html=1;rounded=0;exitX=0;exitY=0.5;exitDx=0;exitDy=0;exitPerimeter=0;entryX=0;entryY=0.5;entryDx=0;entryDy=0;" edge="1" parent="1" source="tfpIiOzo_Po5P9u3w-RI-46" target="puAjaU_ZfNTtAV1WR_DC-167">
          <mxGeometry width="50" height="50" relative="1" as="geometry">
            <mxPoint x="850" y="-330" as="sourcePoint" />
            <mxPoint x="900" y="-380" as="targetPoint" />
          </mxGeometry>
        </mxCell>
        <mxCell id="tfpIiOzo_Po5P9u3w-RI-50" value="" style="shape=providedRequiredInterface;html=1;verticalLabelPosition=bottom;sketch=0;rotation=0;" vertex="1" parent="1">
          <mxGeometry x="880" y="173" width="20" height="20" as="geometry" />
        </mxCell>
        <mxCell id="tfpIiOzo_Po5P9u3w-RI-51" value="" style="endArrow=none;html=1;rounded=0;exitX=1;exitY=0.5;exitDx=0;exitDy=0;entryX=0;entryY=0.5;entryDx=0;entryDy=0;entryPerimeter=0;" edge="1" parent="1" source="tfpIiOzo_Po5P9u3w-RI-234" target="tfpIiOzo_Po5P9u3w-RI-50">
          <mxGeometry width="50" height="50" relative="1" as="geometry">
            <mxPoint x="820" y="320" as="sourcePoint" />
            <mxPoint x="870" y="270" as="targetPoint" />
          </mxGeometry>
        </mxCell>
        <mxCell id="tfpIiOzo_Po5P9u3w-RI-52" value="" style="endArrow=none;html=1;rounded=0;entryX=1;entryY=0.5;entryDx=0;entryDy=0;entryPerimeter=0;exitX=0;exitY=0.5;exitDx=0;exitDy=0;" edge="1" parent="1" source="tfpIiOzo_Po5P9u3w-RI-283" target="tfpIiOzo_Po5P9u3w-RI-50">
          <mxGeometry width="50" height="50" relative="1" as="geometry">
            <mxPoint x="860" y="320" as="sourcePoint" />
            <mxPoint x="940" y="210" as="targetPoint" />
          </mxGeometry>
        </mxCell>
        <mxCell id="tfpIiOzo_Po5P9u3w-RI-53" value="" style="endArrow=none;html=1;rounded=0;exitX=1;exitY=0.5;exitDx=0;exitDy=0;entryX=1;entryY=0.5;entryDx=0;entryDy=0;entryPerimeter=0;" edge="1" parent="1" source="tfpIiOzo_Po5P9u3w-RI-288" target="tfpIiOzo_Po5P9u3w-RI-54">
          <mxGeometry width="50" height="50" relative="1" as="geometry">
            <mxPoint x="840" y="420" as="sourcePoint" />
            <mxPoint x="830" y="330" as="targetPoint" />
          </mxGeometry>
        </mxCell>
        <mxCell id="tfpIiOzo_Po5P9u3w-RI-54" value="" style="shape=providedRequiredInterface;html=1;verticalLabelPosition=bottom;sketch=0;rotation=180;" vertex="1" parent="1">
          <mxGeometry x="880" y="330" width="20" height="20" as="geometry" />
        </mxCell>
        <mxCell id="tfpIiOzo_Po5P9u3w-RI-56" value="" style="endArrow=none;html=1;rounded=0;exitX=1;exitY=0.5;exitDx=0;exitDy=0;entryX=0;entryY=0.5;entryDx=0;entryDy=0;entryPerimeter=0;" edge="1" parent="1" source="tfpIiOzo_Po5P9u3w-RI-293" target="tfpIiOzo_Po5P9u3w-RI-57">
          <mxGeometry width="50" height="50" relative="1" as="geometry">
            <mxPoint x="850" y="470" as="sourcePoint" />
            <mxPoint x="900" y="420" as="targetPoint" />
          </mxGeometry>
        </mxCell>
        <mxCell id="tfpIiOzo_Po5P9u3w-RI-57" value="" style="shape=providedRequiredInterface;html=1;verticalLabelPosition=bottom;sketch=0;rotation=0;" vertex="1" parent="1">
          <mxGeometry x="880" y="410" width="20" height="20" as="geometry" />
        </mxCell>
        <mxCell id="tfpIiOzo_Po5P9u3w-RI-58" value="" style="endArrow=none;html=1;rounded=0;entryX=1;entryY=0.5;entryDx=0;entryDy=0;entryPerimeter=0;exitX=0;exitY=0.5;exitDx=0;exitDy=0;" edge="1" parent="1" source="tfpIiOzo_Po5P9u3w-RI-295" target="tfpIiOzo_Po5P9u3w-RI-57">
          <mxGeometry width="50" height="50" relative="1" as="geometry">
            <mxPoint x="1040" y="400" as="sourcePoint" />
            <mxPoint x="940" y="400" as="targetPoint" />
          </mxGeometry>
        </mxCell>
        <mxCell id="tfpIiOzo_Po5P9u3w-RI-59" value="" style="endArrow=none;html=1;rounded=0;exitX=1;exitY=0.5;exitDx=0;exitDy=0;entryX=0;entryY=0.5;entryDx=0;entryDy=0;entryPerimeter=0;" edge="1" parent="1" source="tfpIiOzo_Po5P9u3w-RI-297" target="tfpIiOzo_Po5P9u3w-RI-60">
          <mxGeometry width="50" height="50" relative="1" as="geometry">
            <mxPoint x="840" y="530" as="sourcePoint" />
            <mxPoint x="860" y="470" as="targetPoint" />
          </mxGeometry>
        </mxCell>
        <mxCell id="tfpIiOzo_Po5P9u3w-RI-60" value="" style="shape=providedRequiredInterface;html=1;verticalLabelPosition=bottom;sketch=0;rotation=0;" vertex="1" parent="1">
          <mxGeometry x="880" y="480" width="20" height="20" as="geometry" />
        </mxCell>
        <mxCell id="tfpIiOzo_Po5P9u3w-RI-61" value="" style="endArrow=none;html=1;rounded=0;entryX=1;entryY=0.5;entryDx=0;entryDy=0;entryPerimeter=0;exitX=0;exitY=0.5;exitDx=0;exitDy=0;" edge="1" parent="1" source="tfpIiOzo_Po5P9u3w-RI-299" target="tfpIiOzo_Po5P9u3w-RI-60">
          <mxGeometry width="50" height="50" relative="1" as="geometry">
            <mxPoint x="1040" y="470" as="sourcePoint" />
            <mxPoint x="940" y="470" as="targetPoint" />
          </mxGeometry>
        </mxCell>
        <mxCell id="tfpIiOzo_Po5P9u3w-RI-63" value="" style="shape=providedRequiredInterface;html=1;verticalLabelPosition=bottom;sketch=0;rotation=180;" vertex="1" parent="1">
          <mxGeometry x="880" y="615" width="20" height="20" as="geometry" />
        </mxCell>
        <mxCell id="tfpIiOzo_Po5P9u3w-RI-64" value="" style="endArrow=none;html=1;rounded=0;entryX=1;entryY=0.5;entryDx=0;entryDy=0;entryPerimeter=0;exitX=1;exitY=0.5;exitDx=0;exitDy=0;" edge="1" parent="1" source="tfpIiOzo_Po5P9u3w-RI-301" target="tfpIiOzo_Po5P9u3w-RI-63">
          <mxGeometry width="50" height="50" relative="1" as="geometry">
            <mxPoint x="830" y="600" as="sourcePoint" />
            <mxPoint x="870" y="670" as="targetPoint" />
          </mxGeometry>
        </mxCell>
        <mxCell id="tfpIiOzo_Po5P9u3w-RI-65" value="" style="endArrow=none;html=1;rounded=0;entryX=0;entryY=0.5;entryDx=0;entryDy=0;entryPerimeter=0;exitX=0;exitY=0.5;exitDx=0;exitDy=0;" edge="1" parent="1" source="tfpIiOzo_Po5P9u3w-RI-304" target="tfpIiOzo_Po5P9u3w-RI-63">
          <mxGeometry width="50" height="50" relative="1" as="geometry">
            <mxPoint x="920" y="730" as="sourcePoint" />
            <mxPoint x="940" y="620" as="targetPoint" />
          </mxGeometry>
        </mxCell>
        <mxCell id="tfpIiOzo_Po5P9u3w-RI-66" value="" style="endArrow=none;html=1;rounded=0;exitX=1;exitY=0.5;exitDx=0;exitDy=0;entryX=0;entryY=0.5;entryDx=0;entryDy=0;entryPerimeter=0;" edge="1" parent="1" source="tfpIiOzo_Po5P9u3w-RI-249" target="tfpIiOzo_Po5P9u3w-RI-69">
          <mxGeometry width="50" height="50" relative="1" as="geometry">
            <mxPoint x="380" y="480" as="sourcePoint" />
            <mxPoint x="430" y="470" as="targetPoint" />
          </mxGeometry>
        </mxCell>
        <mxCell id="tfpIiOzo_Po5P9u3w-RI-69" value="" style="shape=providedRequiredInterface;html=1;verticalLabelPosition=bottom;sketch=0;rotation=0;" vertex="1" parent="1">
          <mxGeometry x="400" y="470" width="20" height="20" as="geometry" />
        </mxCell>
        <mxCell id="tfpIiOzo_Po5P9u3w-RI-70" value="" style="endArrow=none;html=1;rounded=0;entryX=1;entryY=0.5;entryDx=0;entryDy=0;entryPerimeter=0;exitX=0;exitY=0.5;exitDx=0;exitDy=0;" edge="1" parent="1" source="tfpIiOzo_Po5P9u3w-RI-262" target="tfpIiOzo_Po5P9u3w-RI-69">
          <mxGeometry width="50" height="50" relative="1" as="geometry">
            <mxPoint x="390" y="580" as="sourcePoint" />
            <mxPoint x="440" y="530" as="targetPoint" />
          </mxGeometry>
        </mxCell>
        <mxCell id="tfpIiOzo_Po5P9u3w-RI-71" value="" style="shape=providedRequiredInterface;html=1;verticalLabelPosition=bottom;sketch=0;rotation=0;" vertex="1" parent="1">
          <mxGeometry x="400" y="400" width="20" height="20" as="geometry" />
        </mxCell>
        <mxCell id="tfpIiOzo_Po5P9u3w-RI-72" value="" style="endArrow=none;html=1;rounded=0;exitX=1;exitY=0.5;exitDx=0;exitDy=0;entryX=0;entryY=0.5;entryDx=0;entryDy=0;entryPerimeter=0;" edge="1" parent="1" source="tfpIiOzo_Po5P9u3w-RI-247" target="tfpIiOzo_Po5P9u3w-RI-71">
          <mxGeometry width="50" height="50" relative="1" as="geometry">
            <mxPoint x="350" y="430" as="sourcePoint" />
            <mxPoint x="420" y="400" as="targetPoint" />
          </mxGeometry>
        </mxCell>
        <mxCell id="tfpIiOzo_Po5P9u3w-RI-73" value="" style="endArrow=none;html=1;rounded=0;entryX=1;entryY=0.5;entryDx=0;entryDy=0;entryPerimeter=0;exitX=0;exitY=0.5;exitDx=0;exitDy=0;" edge="1" parent="1" source="tfpIiOzo_Po5P9u3w-RI-258" target="tfpIiOzo_Po5P9u3w-RI-71">
          <mxGeometry width="50" height="50" relative="1" as="geometry">
            <mxPoint x="380" y="580" as="sourcePoint" />
            <mxPoint x="430" y="530" as="targetPoint" />
          </mxGeometry>
        </mxCell>
        <mxCell id="tfpIiOzo_Po5P9u3w-RI-74" value="" style="shape=providedRequiredInterface;html=1;verticalLabelPosition=bottom;sketch=0;rotation=180;" vertex="1" parent="1">
          <mxGeometry x="400" y="330" width="20" height="20" as="geometry" />
        </mxCell>
        <mxCell id="tfpIiOzo_Po5P9u3w-RI-75" value="" style="endArrow=none;html=1;rounded=0;entryX=1;entryY=0.5;entryDx=0;entryDy=0;entryPerimeter=0;exitX=1;exitY=0.5;exitDx=0;exitDy=0;" edge="1" parent="1" source="tfpIiOzo_Po5P9u3w-RI-239" target="tfpIiOzo_Po5P9u3w-RI-74">
          <mxGeometry width="50" height="50" relative="1" as="geometry">
            <mxPoint x="380" y="470" as="sourcePoint" />
            <mxPoint x="430" y="420" as="targetPoint" />
          </mxGeometry>
        </mxCell>
        <mxCell id="tfpIiOzo_Po5P9u3w-RI-76" value="" style="endArrow=none;html=1;rounded=0;exitX=0;exitY=0.5;exitDx=0;exitDy=0;exitPerimeter=0;entryX=0;entryY=0.5;entryDx=0;entryDy=0;" edge="1" parent="1" source="tfpIiOzo_Po5P9u3w-RI-254" target="tfpIiOzo_Po5P9u3w-RI-252">
          <mxGeometry width="50" height="50" relative="1" as="geometry">
            <mxPoint x="410" y="290" as="sourcePoint" />
            <mxPoint x="460" y="240" as="targetPoint" />
          </mxGeometry>
        </mxCell>
        <mxCell id="tfpIiOzo_Po5P9u3w-RI-77" value="&lt;span style=&quot;text-wrap: wrap;&quot;&gt;Save Configuration&lt;/span&gt;" style="text;html=1;align=center;verticalAlign=middle;resizable=0;points=[];autosize=1;strokeColor=none;fillColor=none;" vertex="1" parent="1">
          <mxGeometry x="825" y="143" width="130" height="30" as="geometry" />
        </mxCell>
        <mxCell id="tfpIiOzo_Po5P9u3w-RI-78" value="" style="endArrow=none;html=1;rounded=0;exitX=1;exitY=0.5;exitDx=0;exitDy=0;entryX=0;entryY=0.5;entryDx=0;entryDy=0;entryPerimeter=0;" edge="1" parent="1" source="tfpIiOzo_Po5P9u3w-RI-225" target="tfpIiOzo_Po5P9u3w-RI-79">
          <mxGeometry width="50" height="50" relative="1" as="geometry">
            <mxPoint x="370" y="220" as="sourcePoint" />
            <mxPoint x="420" y="170" as="targetPoint" />
          </mxGeometry>
        </mxCell>
        <mxCell id="tfpIiOzo_Po5P9u3w-RI-79" value="" style="shape=providedRequiredInterface;html=1;verticalLabelPosition=bottom;sketch=0;rotation=0;" vertex="1" parent="1">
          <mxGeometry x="400" y="173" width="20" height="20" as="geometry" />
        </mxCell>
        <mxCell id="tfpIiOzo_Po5P9u3w-RI-81" value="" style="shape=providedRequiredInterface;html=1;verticalLabelPosition=bottom;sketch=0;rotation=180;" vertex="1" parent="1">
          <mxGeometry x="400" y="-50" width="20" height="20" as="geometry" />
        </mxCell>
        <mxCell id="tfpIiOzo_Po5P9u3w-RI-82" value="" style="shape=providedRequiredInterface;html=1;verticalLabelPosition=bottom;sketch=0;rotation=180;" vertex="1" parent="1">
          <mxGeometry x="400" y="30" width="20" height="20" as="geometry" />
        </mxCell>
        <mxCell id="tfpIiOzo_Po5P9u3w-RI-83" value="" style="endArrow=none;html=1;rounded=0;entryX=1;entryY=0.5;entryDx=0;entryDy=0;entryPerimeter=0;exitX=1;exitY=0.5;exitDx=0;exitDy=0;" edge="1" parent="1" source="tfpIiOzo_Po5P9u3w-RI-198" target="tfpIiOzo_Po5P9u3w-RI-81">
          <mxGeometry width="50" height="50" relative="1" as="geometry">
            <mxPoint x="370" y="10" as="sourcePoint" />
            <mxPoint x="420" y="-40" as="targetPoint" />
          </mxGeometry>
        </mxCell>
        <mxCell id="tfpIiOzo_Po5P9u3w-RI-84" value="" style="endArrow=none;html=1;rounded=0;exitX=0;exitY=0.5;exitDx=0;exitDy=0;entryX=0;entryY=0.5;entryDx=0;entryDy=0;entryPerimeter=0;" edge="1" parent="1" source="tfpIiOzo_Po5P9u3w-RI-204" target="tfpIiOzo_Po5P9u3w-RI-81">
          <mxGeometry width="50" height="50" relative="1" as="geometry">
            <mxPoint x="390" y="79.99999999999977" as="sourcePoint" />
            <mxPoint x="400" as="targetPoint" />
          </mxGeometry>
        </mxCell>
        <mxCell id="tfpIiOzo_Po5P9u3w-RI-85" value="" style="endArrow=none;html=1;rounded=0;entryX=0;entryY=0.5;entryDx=0;entryDy=0;exitX=0;exitY=0.5;exitDx=0;exitDy=0;exitPerimeter=0;" edge="1" parent="1" source="tfpIiOzo_Po5P9u3w-RI-212" target="tfpIiOzo_Po5P9u3w-RI-211">
          <mxGeometry width="50" height="50" relative="1" as="geometry">
            <mxPoint x="410" y="140" as="sourcePoint" />
            <mxPoint x="460" y="90" as="targetPoint" />
          </mxGeometry>
        </mxCell>
        <mxCell id="tfpIiOzo_Po5P9u3w-RI-86" value="" style="endArrow=none;html=1;rounded=0;exitX=1;exitY=0.5;exitDx=0;exitDy=0;entryX=1;entryY=0.5;entryDx=0;entryDy=0;entryPerimeter=0;" edge="1" parent="1" source="tfpIiOzo_Po5P9u3w-RI-221" target="tfpIiOzo_Po5P9u3w-RI-82">
          <mxGeometry width="50" height="50" relative="1" as="geometry">
            <mxPoint x="250.0000000000001" y="18.89" as="sourcePoint" />
            <mxPoint x="459.62" y="18.89" as="targetPoint" />
          </mxGeometry>
        </mxCell>
        <mxCell id="tfpIiOzo_Po5P9u3w-RI-87" value="" style="whiteSpace=wrap;html=1;aspect=fixed;" vertex="1" parent="1">
          <mxGeometry x="550" y="-476" width="20" height="20" as="geometry" />
        </mxCell>
        <mxCell id="tfpIiOzo_Po5P9u3w-RI-88" value="" style="whiteSpace=wrap;html=1;aspect=fixed;" vertex="1" parent="1">
          <mxGeometry x="550" y="-680" width="20" height="20" as="geometry" />
        </mxCell>
        <mxCell id="tfpIiOzo_Po5P9u3w-RI-89" value="" style="whiteSpace=wrap;html=1;aspect=fixed;" vertex="1" parent="1">
          <mxGeometry x="550" y="-890" width="20" height="20" as="geometry" />
        </mxCell>
        <mxCell id="tfpIiOzo_Po5P9u3w-RI-90" value="" style="whiteSpace=wrap;html=1;aspect=fixed;" vertex="1" parent="1">
          <mxGeometry x="220" y="-890" width="20" height="20" as="geometry" />
        </mxCell>
        <mxCell id="tfpIiOzo_Po5P9u3w-RI-92" value="" style="endArrow=none;html=1;rounded=0;entryX=0;entryY=0.5;entryDx=0;entryDy=0;entryPerimeter=0;" edge="1" parent="1" target="nfsDe8eXNVFqQ5E389Qe-3">
          <mxGeometry width="50" height="50" relative="1" as="geometry">
            <mxPoint x="300" y="-880.48" as="sourcePoint" />
            <mxPoint x="450" y="-880.48" as="targetPoint" />
          </mxGeometry>
        </mxCell>
        <mxCell id="tfpIiOzo_Po5P9u3w-RI-94" value="" style="whiteSpace=wrap;html=1;aspect=fixed;" vertex="1" parent="1">
          <mxGeometry x="220.74" y="-680" width="20" height="20" as="geometry" />
        </mxCell>
        <mxCell id="tfpIiOzo_Po5P9u3w-RI-95" value="" style="whiteSpace=wrap;html=1;aspect=fixed;" vertex="1" parent="1">
          <mxGeometry x="550" y="-789.75" width="20" height="20" as="geometry" />
        </mxCell>
        <mxCell id="tfpIiOzo_Po5P9u3w-RI-96" value="" style="whiteSpace=wrap;html=1;aspect=fixed;" vertex="1" parent="1">
          <mxGeometry x="220.74" y="-750" width="20" height="20" as="geometry" />
        </mxCell>
        <mxCell id="tfpIiOzo_Po5P9u3w-RI-97" value="" style="whiteSpace=wrap;html=1;aspect=fixed;" vertex="1" parent="1">
          <mxGeometry x="220.74" y="-820" width="20" height="20" as="geometry" />
        </mxCell>
        <mxCell id="tfpIiOzo_Po5P9u3w-RI-101" value="" style="endArrow=none;html=1;rounded=0;entryX=0;entryY=0.5;entryDx=0;entryDy=0;exitX=1;exitY=0.5;exitDx=0;exitDy=0;exitPerimeter=0;" edge="1" parent="1" source="tfpIiOzo_Po5P9u3w-RI-132" target="tfpIiOzo_Po5P9u3w-RI-95">
          <mxGeometry width="50" height="50" relative="1" as="geometry">
            <mxPoint x="400" y="-740" as="sourcePoint" />
            <mxPoint x="450" y="-790" as="targetPoint" />
          </mxGeometry>
        </mxCell>
        <mxCell id="tfpIiOzo_Po5P9u3w-RI-102" value="" style="endArrow=none;html=1;rounded=0;exitX=1;exitY=0.5;exitDx=0;exitDy=0;" edge="1" parent="1" source="tfpIiOzo_Po5P9u3w-RI-121">
          <mxGeometry width="50" height="50" relative="1" as="geometry">
            <mxPoint x="340" y="-750" as="sourcePoint" />
            <mxPoint x="400" y="-810" as="targetPoint" />
          </mxGeometry>
        </mxCell>
        <mxCell id="tfpIiOzo_Po5P9u3w-RI-103" value="" style="endArrow=none;html=1;rounded=0;exitX=1;exitY=0.5;exitDx=0;exitDy=0;" edge="1" parent="1" source="tfpIiOzo_Po5P9u3w-RI-117">
          <mxGeometry width="50" height="50" relative="1" as="geometry">
            <mxPoint x="340" y="-710" as="sourcePoint" />
            <mxPoint x="400" y="-740" as="targetPoint" />
          </mxGeometry>
        </mxCell>
        <mxCell id="tfpIiOzo_Po5P9u3w-RI-105" value="" style="endArrow=none;html=1;rounded=0;entryX=0;entryY=0.5;entryDx=0;entryDy=0;entryPerimeter=0;" edge="1" parent="1" target="puAjaU_ZfNTtAV1WR_DC-108">
          <mxGeometry width="50" height="50" relative="1" as="geometry">
            <mxPoint x="400" y="-780" as="sourcePoint" />
            <mxPoint x="400" y="-790" as="targetPoint" />
          </mxGeometry>
        </mxCell>
        <mxCell id="tfpIiOzo_Po5P9u3w-RI-106" value="" style="endArrow=none;html=1;rounded=0;" edge="1" parent="1">
          <mxGeometry width="50" height="50" relative="1" as="geometry">
            <mxPoint x="400" y="-740" as="sourcePoint" />
            <mxPoint x="400" y="-810" as="targetPoint" />
            <Array as="points">
              <mxPoint x="400" y="-770" />
            </Array>
          </mxGeometry>
        </mxCell>
        <mxCell id="tfpIiOzo_Po5P9u3w-RI-108" value="" style="whiteSpace=wrap;html=1;aspect=fixed;" vertex="1" parent="1">
          <mxGeometry x="220.74" y="-476" width="20" height="20" as="geometry" />
        </mxCell>
        <mxCell id="tfpIiOzo_Po5P9u3w-RI-109" value="" style="whiteSpace=wrap;html=1;aspect=fixed;" vertex="1" parent="1">
          <mxGeometry x="550" y="-550" width="20" height="20" as="geometry" />
        </mxCell>
        <mxCell id="tfpIiOzo_Po5P9u3w-RI-110" value="" style="whiteSpace=wrap;html=1;aspect=fixed;" vertex="1" parent="1">
          <mxGeometry x="220.74" y="-546" width="20" height="20" as="geometry" />
        </mxCell>
        <mxCell id="tfpIiOzo_Po5P9u3w-RI-112" value="" style="endArrow=none;html=1;rounded=0;entryX=0;entryY=0.5;entryDx=0;entryDy=0;entryPerimeter=0;" edge="1" parent="1" target="tfpIiOzo_Po5P9u3w-RI-111">
          <mxGeometry width="50" height="50" relative="1" as="geometry">
            <mxPoint x="241" y="-880" as="sourcePoint" />
            <mxPoint x="410" y="-880" as="targetPoint" />
          </mxGeometry>
        </mxCell>
        <mxCell id="tfpIiOzo_Po5P9u3w-RI-111" value="" style="whiteSpace=wrap;html=1;aspect=fixed;" vertex="1" parent="1">
          <mxGeometry x="250" y="-890" width="20" height="20" as="geometry" />
        </mxCell>
        <mxCell id="tfpIiOzo_Po5P9u3w-RI-114" value="" style="endArrow=none;html=1;rounded=0;entryX=0;entryY=0.5;entryDx=0;entryDy=0;entryPerimeter=0;" edge="1" parent="1" source="tfpIiOzo_Po5P9u3w-RI-111" target="tfpIiOzo_Po5P9u3w-RI-113">
          <mxGeometry width="50" height="50" relative="1" as="geometry">
            <mxPoint x="270" y="-880" as="sourcePoint" />
            <mxPoint x="410" y="-880" as="targetPoint" />
          </mxGeometry>
        </mxCell>
        <mxCell id="tfpIiOzo_Po5P9u3w-RI-113" value="" style="whiteSpace=wrap;html=1;aspect=fixed;" vertex="1" parent="1">
          <mxGeometry x="280" y="-890" width="20" height="20" as="geometry" />
        </mxCell>
        <mxCell id="tfpIiOzo_Po5P9u3w-RI-116" value="" style="endArrow=none;html=1;rounded=0;exitX=1;exitY=0.5;exitDx=0;exitDy=0;" edge="1" parent="1" source="tfpIiOzo_Po5P9u3w-RI-97" target="tfpIiOzo_Po5P9u3w-RI-115">
          <mxGeometry width="50" height="50" relative="1" as="geometry">
            <mxPoint x="241" y="-810" as="sourcePoint" />
            <mxPoint x="380" y="-810" as="targetPoint" />
          </mxGeometry>
        </mxCell>
        <mxCell id="tfpIiOzo_Po5P9u3w-RI-115" value="" style="whiteSpace=wrap;html=1;aspect=fixed;" vertex="1" parent="1">
          <mxGeometry x="250" y="-820" width="20" height="20" as="geometry" />
        </mxCell>
        <mxCell id="tfpIiOzo_Po5P9u3w-RI-118" value="" style="endArrow=none;html=1;rounded=0;exitX=1;exitY=0.5;exitDx=0;exitDy=0;" edge="1" parent="1" source="tfpIiOzo_Po5P9u3w-RI-96" target="tfpIiOzo_Po5P9u3w-RI-117">
          <mxGeometry width="50" height="50" relative="1" as="geometry">
            <mxPoint x="241" y="-740" as="sourcePoint" />
            <mxPoint x="380" y="-740" as="targetPoint" />
          </mxGeometry>
        </mxCell>
        <mxCell id="tfpIiOzo_Po5P9u3w-RI-117" value="" style="whiteSpace=wrap;html=1;aspect=fixed;" vertex="1" parent="1">
          <mxGeometry x="250" y="-750" width="20" height="20" as="geometry" />
        </mxCell>
        <mxCell id="tfpIiOzo_Po5P9u3w-RI-120" value="" style="edgeStyle=orthogonalEdgeStyle;rounded=0;orthogonalLoop=1;jettySize=auto;html=1;entryX=0;entryY=0.5;entryDx=0;entryDy=0;entryPerimeter=0;endArrow=none;endFill=0;" edge="1" parent="1" target="tfpIiOzo_Po5P9u3w-RI-119">
          <mxGeometry relative="1" as="geometry">
            <mxPoint x="250" y="-670.42" as="sourcePoint" />
            <mxPoint x="410" y="-670" as="targetPoint" />
            <Array as="points" />
          </mxGeometry>
        </mxCell>
        <mxCell id="tfpIiOzo_Po5P9u3w-RI-122" value="" style="endArrow=none;html=1;rounded=0;exitX=1;exitY=0.5;exitDx=0;exitDy=0;" edge="1" parent="1" source="tfpIiOzo_Po5P9u3w-RI-115" target="tfpIiOzo_Po5P9u3w-RI-121">
          <mxGeometry width="50" height="50" relative="1" as="geometry">
            <mxPoint x="270" y="-810" as="sourcePoint" />
            <mxPoint x="380" y="-810" as="targetPoint" />
          </mxGeometry>
        </mxCell>
        <mxCell id="tfpIiOzo_Po5P9u3w-RI-121" value="" style="whiteSpace=wrap;html=1;aspect=fixed;" vertex="1" parent="1">
          <mxGeometry x="280" y="-820" width="20" height="20" as="geometry" />
        </mxCell>
        <mxCell id="tfpIiOzo_Po5P9u3w-RI-123" value="" style="whiteSpace=wrap;html=1;aspect=fixed;" vertex="1" parent="1">
          <mxGeometry x="280" y="-750" width="20" height="20" as="geometry" />
        </mxCell>
        <mxCell id="tfpIiOzo_Po5P9u3w-RI-125" value="" style="edgeStyle=orthogonalEdgeStyle;rounded=0;orthogonalLoop=1;jettySize=auto;html=1;entryX=0;entryY=0.5;entryDx=0;entryDy=0;entryPerimeter=0;endArrow=none;endFill=0;" edge="1" parent="1" source="tfpIiOzo_Po5P9u3w-RI-119" target="tfpIiOzo_Po5P9u3w-RI-124">
          <mxGeometry relative="1" as="geometry">
            <mxPoint x="270" y="-670" as="sourcePoint" />
            <mxPoint x="410" y="-670" as="targetPoint" />
            <Array as="points">
              <mxPoint x="240" y="-670" />
              <mxPoint x="240" y="-670" />
            </Array>
          </mxGeometry>
        </mxCell>
        <mxCell id="tfpIiOzo_Po5P9u3w-RI-124" value="" style="whiteSpace=wrap;html=1;aspect=fixed;" vertex="1" parent="1">
          <mxGeometry x="280" y="-680" width="20" height="20" as="geometry" />
        </mxCell>
        <mxCell id="tfpIiOzo_Po5P9u3w-RI-119" value="" style="whiteSpace=wrap;html=1;aspect=fixed;" vertex="1" parent="1">
          <mxGeometry x="250" y="-680" width="20" height="20" as="geometry" />
        </mxCell>
        <mxCell id="tfpIiOzo_Po5P9u3w-RI-133" value="" style="endArrow=none;html=1;rounded=0;entryX=0;entryY=0.5;entryDx=0;entryDy=0;exitX=1;exitY=0.5;exitDx=0;exitDy=0;exitPerimeter=0;" edge="1" parent="1" source="tfpIiOzo_Po5P9u3w-RI-134" target="tfpIiOzo_Po5P9u3w-RI-132">
          <mxGeometry width="50" height="50" relative="1" as="geometry">
            <mxPoint x="470" y="-780" as="sourcePoint" />
            <mxPoint x="550" y="-780" as="targetPoint" />
          </mxGeometry>
        </mxCell>
        <mxCell id="tfpIiOzo_Po5P9u3w-RI-132" value="" style="whiteSpace=wrap;html=1;aspect=fixed;" vertex="1" parent="1">
          <mxGeometry x="519.5" y="-789.75" width="20" height="20" as="geometry" />
        </mxCell>
        <mxCell id="tfpIiOzo_Po5P9u3w-RI-135" value="" style="endArrow=none;html=1;rounded=0;entryX=0;entryY=0.5;entryDx=0;entryDy=0;exitX=1;exitY=0.5;exitDx=0;exitDy=0;exitPerimeter=0;" edge="1" parent="1" source="puAjaU_ZfNTtAV1WR_DC-108" target="tfpIiOzo_Po5P9u3w-RI-134">
          <mxGeometry width="50" height="50" relative="1" as="geometry">
            <mxPoint x="470" y="-780" as="sourcePoint" />
            <mxPoint x="520" y="-780" as="targetPoint" />
          </mxGeometry>
        </mxCell>
        <mxCell id="tfpIiOzo_Po5P9u3w-RI-134" value="" style="whiteSpace=wrap;html=1;aspect=fixed;" vertex="1" parent="1">
          <mxGeometry x="490" y="-789.75" width="20" height="20" as="geometry" />
        </mxCell>
        <mxCell id="tfpIiOzo_Po5P9u3w-RI-137" value="" style="edgeStyle=orthogonalEdgeStyle;rounded=0;orthogonalLoop=1;jettySize=auto;html=1;exitX=1;exitY=0.5;exitDx=0;exitDy=0;exitPerimeter=0;endArrow=none;endFill=0;entryX=0;entryY=0.5;entryDx=0;entryDy=0;" edge="1" parent="1" source="tfpIiOzo_Po5P9u3w-RI-138" target="tfpIiOzo_Po5P9u3w-RI-136">
          <mxGeometry relative="1" as="geometry">
            <Array as="points" />
            <mxPoint x="470" y="-670" as="sourcePoint" />
            <mxPoint x="550" y="-670" as="targetPoint" />
          </mxGeometry>
        </mxCell>
        <mxCell id="tfpIiOzo_Po5P9u3w-RI-136" value="" style="whiteSpace=wrap;html=1;aspect=fixed;" vertex="1" parent="1">
          <mxGeometry x="520.5" y="-680" width="20" height="20" as="geometry" />
        </mxCell>
        <mxCell id="tfpIiOzo_Po5P9u3w-RI-139" value="" style="edgeStyle=orthogonalEdgeStyle;rounded=0;orthogonalLoop=1;jettySize=auto;html=1;exitX=1;exitY=0.5;exitDx=0;exitDy=0;exitPerimeter=0;endArrow=none;endFill=0;entryX=0;entryY=0.5;entryDx=0;entryDy=0;" edge="1" parent="1" source="puAjaU_ZfNTtAV1WR_DC-112" target="tfpIiOzo_Po5P9u3w-RI-138">
          <mxGeometry relative="1" as="geometry">
            <Array as="points" />
            <mxPoint x="470" y="-670" as="sourcePoint" />
            <mxPoint x="521" y="-670" as="targetPoint" />
          </mxGeometry>
        </mxCell>
        <mxCell id="tfpIiOzo_Po5P9u3w-RI-138" value="" style="whiteSpace=wrap;html=1;aspect=fixed;" vertex="1" parent="1">
          <mxGeometry x="490" y="-680" width="20" height="20" as="geometry" />
        </mxCell>
        <mxCell id="tfpIiOzo_Po5P9u3w-RI-141" value="" style="edgeStyle=orthogonalEdgeStyle;rounded=0;orthogonalLoop=1;jettySize=auto;html=1;exitX=1;exitY=0.5;exitDx=0;exitDy=0;entryX=0;entryY=0.5;entryDx=0;entryDy=0;entryPerimeter=0;endArrow=none;endFill=0;" edge="1" parent="1" source="tfpIiOzo_Po5P9u3w-RI-110" target="tfpIiOzo_Po5P9u3w-RI-140">
          <mxGeometry relative="1" as="geometry">
            <mxPoint x="241" y="-536" as="sourcePoint" />
            <mxPoint x="490" y="-540" as="targetPoint" />
            <Array as="points" />
          </mxGeometry>
        </mxCell>
        <mxCell id="tfpIiOzo_Po5P9u3w-RI-140" value="" style="whiteSpace=wrap;html=1;aspect=fixed;" vertex="1" parent="1">
          <mxGeometry x="250" y="-546" width="20" height="20" as="geometry" />
        </mxCell>
        <mxCell id="tfpIiOzo_Po5P9u3w-RI-142" value="" style="whiteSpace=wrap;html=1;aspect=fixed;" vertex="1" parent="1">
          <mxGeometry x="280" y="-546" width="20" height="20" as="geometry" />
        </mxCell>
        <mxCell id="tfpIiOzo_Po5P9u3w-RI-144" value="" style="edgeStyle=orthogonalEdgeStyle;rounded=0;orthogonalLoop=1;jettySize=auto;html=1;exitX=1;exitY=0.5;exitDx=0;exitDy=0;endArrow=none;endFill=0;entryX=0;entryY=0.5;entryDx=0;entryDy=0;entryPerimeter=0;" edge="1" parent="1" source="tfpIiOzo_Po5P9u3w-RI-108" target="tfpIiOzo_Po5P9u3w-RI-143">
          <mxGeometry relative="1" as="geometry">
            <mxPoint x="241" y="-466" as="sourcePoint" />
            <mxPoint x="490" y="-466" as="targetPoint" />
          </mxGeometry>
        </mxCell>
        <mxCell id="tfpIiOzo_Po5P9u3w-RI-143" value="" style="whiteSpace=wrap;html=1;aspect=fixed;" vertex="1" parent="1">
          <mxGeometry x="250" y="-476" width="20" height="20" as="geometry" />
        </mxCell>
        <mxCell id="tfpIiOzo_Po5P9u3w-RI-146" value="" style="edgeStyle=orthogonalEdgeStyle;rounded=0;orthogonalLoop=1;jettySize=auto;html=1;exitX=1;exitY=0.5;exitDx=0;exitDy=0;endArrow=none;endFill=0;entryX=0;entryY=0.5;entryDx=0;entryDy=0;entryPerimeter=0;" edge="1" parent="1" source="tfpIiOzo_Po5P9u3w-RI-143" target="tfpIiOzo_Po5P9u3w-RI-145">
          <mxGeometry relative="1" as="geometry">
            <mxPoint x="270" y="-466" as="sourcePoint" />
            <mxPoint x="490" y="-466" as="targetPoint" />
          </mxGeometry>
        </mxCell>
        <mxCell id="tfpIiOzo_Po5P9u3w-RI-145" value="" style="whiteSpace=wrap;html=1;aspect=fixed;" vertex="1" parent="1">
          <mxGeometry x="280" y="-476" width="20" height="20" as="geometry" />
        </mxCell>
        <mxCell id="tfpIiOzo_Po5P9u3w-RI-148" value="" style="edgeStyle=orthogonalEdgeStyle;rounded=0;orthogonalLoop=1;jettySize=auto;html=1;exitX=1;exitY=0.5;exitDx=0;exitDy=0;exitPerimeter=0;entryX=0;entryY=0.5;entryDx=0;entryDy=0;endArrow=none;endFill=0;" edge="1" parent="1" source="tfpIiOzo_Po5P9u3w-RI-160" target="tfpIiOzo_Po5P9u3w-RI-147">
          <mxGeometry relative="1" as="geometry">
            <mxPoint x="510" y="-540" as="sourcePoint" />
            <mxPoint x="550" y="-540" as="targetPoint" />
          </mxGeometry>
        </mxCell>
        <mxCell id="tfpIiOzo_Po5P9u3w-RI-147" value="" style="whiteSpace=wrap;html=1;aspect=fixed;" vertex="1" parent="1">
          <mxGeometry x="521" y="-550" width="20" height="20" as="geometry" />
        </mxCell>
        <mxCell id="tfpIiOzo_Po5P9u3w-RI-150" value="" style="edgeStyle=orthogonalEdgeStyle;rounded=0;orthogonalLoop=1;jettySize=auto;html=1;exitX=1;exitY=0.5;exitDx=0;exitDy=0;exitPerimeter=0;entryX=0;entryY=0.5;entryDx=0;entryDy=0;endArrow=none;endFill=0;" edge="1" parent="1" source="puAjaU_ZfNTtAV1WR_DC-130" target="tfpIiOzo_Po5P9u3w-RI-149">
          <mxGeometry relative="1" as="geometry">
            <mxPoint x="510" y="-466" as="sourcePoint" />
            <mxPoint x="550" y="-466" as="targetPoint" />
          </mxGeometry>
        </mxCell>
        <mxCell id="tfpIiOzo_Po5P9u3w-RI-149" value="" style="whiteSpace=wrap;html=1;aspect=fixed;" vertex="1" parent="1">
          <mxGeometry x="520" y="-476" width="20" height="20" as="geometry" />
        </mxCell>
        <mxCell id="tfpIiOzo_Po5P9u3w-RI-151" value="" style="whiteSpace=wrap;html=1;aspect=fixed;" vertex="1" parent="1">
          <mxGeometry x="220.74" y="-340" width="20" height="20" as="geometry" />
        </mxCell>
        <mxCell id="tfpIiOzo_Po5P9u3w-RI-152" value="" style="whiteSpace=wrap;html=1;aspect=fixed;" vertex="1" parent="1">
          <mxGeometry x="550" y="-340" width="20" height="20" as="geometry" />
        </mxCell>
        <mxCell id="tfpIiOzo_Po5P9u3w-RI-154" value="" style="edgeStyle=orthogonalEdgeStyle;rounded=0;orthogonalLoop=1;jettySize=auto;html=1;exitX=0;exitY=0.5;exitDx=0;exitDy=0;entryX=0;entryY=0.5;entryDx=0;entryDy=0;entryPerimeter=0;endArrow=none;endFill=0;" edge="1" parent="1" source="tfpIiOzo_Po5P9u3w-RI-152" target="tfpIiOzo_Po5P9u3w-RI-153">
          <mxGeometry relative="1" as="geometry">
            <Array as="points" />
            <mxPoint x="559" y="-335" as="sourcePoint" />
            <mxPoint x="470" y="-330" as="targetPoint" />
          </mxGeometry>
        </mxCell>
        <mxCell id="tfpIiOzo_Po5P9u3w-RI-153" value="" style="whiteSpace=wrap;html=1;aspect=fixed;" vertex="1" parent="1">
          <mxGeometry x="521" y="-340" width="20" height="20" as="geometry" />
        </mxCell>
        <mxCell id="tfpIiOzo_Po5P9u3w-RI-156" value="" style="edgeStyle=orthogonalEdgeStyle;rounded=0;orthogonalLoop=1;jettySize=auto;html=1;exitX=0;exitY=0.5;exitDx=0;exitDy=0;entryX=0;entryY=0.5;entryDx=0;entryDy=0;entryPerimeter=0;endArrow=none;endFill=0;" edge="1" parent="1" source="tfpIiOzo_Po5P9u3w-RI-153" target="tfpIiOzo_Po5P9u3w-RI-155">
          <mxGeometry relative="1" as="geometry">
            <Array as="points" />
            <mxPoint x="521" y="-330" as="sourcePoint" />
            <mxPoint x="470" y="-330" as="targetPoint" />
          </mxGeometry>
        </mxCell>
        <mxCell id="tfpIiOzo_Po5P9u3w-RI-155" value="" style="whiteSpace=wrap;html=1;aspect=fixed;" vertex="1" parent="1">
          <mxGeometry x="490" y="-340" width="20" height="20" as="geometry" />
        </mxCell>
        <mxCell id="tfpIiOzo_Po5P9u3w-RI-157" value="" style="endArrow=none;html=1;rounded=0;entryX=1;entryY=0.5;entryDx=0;entryDy=0;entryPerimeter=0;exitX=0;exitY=0.5;exitDx=0;exitDy=0;" edge="1" parent="1" source="tfpIiOzo_Po5P9u3w-RI-89" target="nfsDe8eXNVFqQ5E389Qe-3">
          <mxGeometry width="50" height="50" relative="1" as="geometry">
            <mxPoint x="410" y="-810" as="sourcePoint" />
            <mxPoint x="460" y="-860" as="targetPoint" />
          </mxGeometry>
        </mxCell>
        <mxCell id="tfpIiOzo_Po5P9u3w-RI-129" value="" style="whiteSpace=wrap;html=1;aspect=fixed;" vertex="1" parent="1">
          <mxGeometry x="490" y="-890" width="20" height="20" as="geometry" />
        </mxCell>
        <mxCell id="tfpIiOzo_Po5P9u3w-RI-127" value="" style="whiteSpace=wrap;html=1;aspect=fixed;" vertex="1" parent="1">
          <mxGeometry x="521" y="-890" width="20" height="20" as="geometry" />
        </mxCell>
        <mxCell id="tfpIiOzo_Po5P9u3w-RI-159" value="" style="whiteSpace=wrap;html=1;aspect=fixed;" vertex="1" parent="1">
          <mxGeometry x="490" y="-476" width="20" height="20" as="geometry" />
        </mxCell>
        <mxCell id="tfpIiOzo_Po5P9u3w-RI-161" value="" style="edgeStyle=orthogonalEdgeStyle;rounded=0;orthogonalLoop=1;jettySize=auto;html=1;exitX=1;exitY=0.5;exitDx=0;exitDy=0;exitPerimeter=0;entryX=0;entryY=0.5;entryDx=0;entryDy=0;endArrow=none;endFill=0;" edge="1" parent="1" source="puAjaU_ZfNTtAV1WR_DC-129" target="tfpIiOzo_Po5P9u3w-RI-160">
          <mxGeometry relative="1" as="geometry">
            <mxPoint x="460" y="-540" as="sourcePoint" />
            <mxPoint x="521" y="-540" as="targetPoint" />
          </mxGeometry>
        </mxCell>
        <mxCell id="tfpIiOzo_Po5P9u3w-RI-160" value="" style="whiteSpace=wrap;html=1;aspect=fixed;" vertex="1" parent="1">
          <mxGeometry x="490" y="-550" width="20" height="20" as="geometry" />
        </mxCell>
        <mxCell id="tfpIiOzo_Po5P9u3w-RI-163" value="" style="edgeStyle=orthogonalEdgeStyle;rounded=0;orthogonalLoop=1;jettySize=auto;html=1;exitX=1;exitY=0.5;exitDx=0;exitDy=0;exitPerimeter=0;endArrow=none;endFill=0;entryX=1;entryY=0.5;entryDx=0;entryDy=0;" edge="1" parent="1" source="tfpIiOzo_Po5P9u3w-RI-164" target="tfpIiOzo_Po5P9u3w-RI-162">
          <mxGeometry relative="1" as="geometry">
            <mxPoint x="450" y="-330" as="sourcePoint" />
            <mxPoint x="241" y="-330" as="targetPoint" />
            <Array as="points" />
          </mxGeometry>
        </mxCell>
        <mxCell id="tfpIiOzo_Po5P9u3w-RI-162" value="" style="whiteSpace=wrap;html=1;aspect=fixed;" vertex="1" parent="1">
          <mxGeometry x="250" y="-340" width="20" height="20" as="geometry" />
        </mxCell>
        <mxCell id="tfpIiOzo_Po5P9u3w-RI-165" value="" style="edgeStyle=orthogonalEdgeStyle;rounded=0;orthogonalLoop=1;jettySize=auto;html=1;exitX=1;exitY=0.5;exitDx=0;exitDy=0;exitPerimeter=0;endArrow=none;endFill=0;entryX=1;entryY=0.5;entryDx=0;entryDy=0;" edge="1" parent="1" source="puAjaU_ZfNTtAV1WR_DC-143" target="tfpIiOzo_Po5P9u3w-RI-164">
          <mxGeometry relative="1" as="geometry">
            <mxPoint x="450" y="-330" as="sourcePoint" />
            <mxPoint x="270" y="-330" as="targetPoint" />
            <Array as="points" />
          </mxGeometry>
        </mxCell>
        <mxCell id="tfpIiOzo_Po5P9u3w-RI-164" value="" style="whiteSpace=wrap;html=1;aspect=fixed;" vertex="1" parent="1">
          <mxGeometry x="280" y="-340" width="20" height="20" as="geometry" />
        </mxCell>
        <mxCell id="tfpIiOzo_Po5P9u3w-RI-166" value="" style="whiteSpace=wrap;html=1;aspect=fixed;" vertex="1" parent="1">
          <mxGeometry x="220.74" y="-260" width="20" height="20" as="geometry" />
        </mxCell>
        <mxCell id="tfpIiOzo_Po5P9u3w-RI-170" value="" style="edgeStyle=orthogonalEdgeStyle;rounded=0;orthogonalLoop=1;jettySize=auto;html=1;exitX=1;exitY=0.5;exitDx=0;exitDy=0;exitPerimeter=0;entryX=1;entryY=0.5;entryDx=0;entryDy=0;endArrow=none;endFill=0;" edge="1" parent="1" source="puAjaU_ZfNTtAV1WR_DC-146" target="tfpIiOzo_Po5P9u3w-RI-166">
          <mxGeometry relative="1" as="geometry">
            <mxPoint x="440" y="-250" as="sourcePoint" />
            <mxPoint x="270" y="-250" as="targetPoint" />
            <Array as="points" />
          </mxGeometry>
        </mxCell>
        <mxCell id="tfpIiOzo_Po5P9u3w-RI-169" value="" style="whiteSpace=wrap;html=1;aspect=fixed;" vertex="1" parent="1">
          <mxGeometry x="280" y="-260" width="20" height="20" as="geometry" />
        </mxCell>
        <mxCell id="tfpIiOzo_Po5P9u3w-RI-167" value="" style="whiteSpace=wrap;html=1;aspect=fixed;" vertex="1" parent="1">
          <mxGeometry x="250" y="-260" width="20" height="20" as="geometry" />
        </mxCell>
        <mxCell id="tfpIiOzo_Po5P9u3w-RI-174" value="" style="whiteSpace=wrap;html=1;aspect=fixed;" vertex="1" parent="1">
          <mxGeometry x="550" y="-260" width="20" height="20" as="geometry" />
        </mxCell>
        <mxCell id="tfpIiOzo_Po5P9u3w-RI-176" value="" style="endArrow=none;html=1;rounded=0;entryX=0;entryY=0.5;entryDx=0;entryDy=0;entryPerimeter=0;exitX=0;exitY=0.5;exitDx=0;exitDy=0;" edge="1" parent="1" source="tfpIiOzo_Po5P9u3w-RI-174" target="puAjaU_ZfNTtAV1WR_DC-146">
          <mxGeometry width="50" height="50" relative="1" as="geometry">
            <mxPoint x="410" y="-180" as="sourcePoint" />
            <mxPoint x="460" y="-230" as="targetPoint" />
          </mxGeometry>
        </mxCell>
        <mxCell id="tfpIiOzo_Po5P9u3w-RI-171" value="" style="whiteSpace=wrap;html=1;aspect=fixed;" vertex="1" parent="1">
          <mxGeometry x="490" y="-260" width="20" height="20" as="geometry" />
        </mxCell>
        <mxCell id="tfpIiOzo_Po5P9u3w-RI-172" value="" style="whiteSpace=wrap;html=1;aspect=fixed;" vertex="1" parent="1">
          <mxGeometry x="520.5" y="-260" width="20" height="20" as="geometry" />
        </mxCell>
        <mxCell id="tfpIiOzo_Po5P9u3w-RI-178" value="" style="edgeStyle=orthogonalEdgeStyle;rounded=0;orthogonalLoop=1;jettySize=auto;html=1;entryX=0;entryY=0.5;entryDx=0;entryDy=0;entryPerimeter=0;endArrow=none;endFill=0;" edge="1" parent="1" target="tfpIiOzo_Po5P9u3w-RI-177">
          <mxGeometry relative="1" as="geometry">
            <mxPoint x="720" y="-670" as="sourcePoint" />
            <mxPoint x="860" y="-670" as="targetPoint" />
            <Array as="points" />
          </mxGeometry>
        </mxCell>
        <mxCell id="tfpIiOzo_Po5P9u3w-RI-177" value="" style="whiteSpace=wrap;html=1;aspect=fixed;" vertex="1" parent="1">
          <mxGeometry x="710.5" y="-680" width="20" height="20" as="geometry" />
        </mxCell>
        <mxCell id="tfpIiOzo_Po5P9u3w-RI-182" value="" style="endArrow=none;html=1;rounded=0;entryX=0;entryY=0.5;entryDx=0;entryDy=0;entryPerimeter=0;exitX=1;exitY=0.5;exitDx=0;exitDy=0;" edge="1" parent="1" source="tfpIiOzo_Po5P9u3w-RI-177" target="puAjaU_ZfNTtAV1WR_DC-115">
          <mxGeometry width="50" height="50" relative="1" as="geometry">
            <mxPoint x="830" y="-730" as="sourcePoint" />
            <mxPoint x="880" y="-780" as="targetPoint" />
          </mxGeometry>
        </mxCell>
        <mxCell id="tfpIiOzo_Po5P9u3w-RI-180" value="" style="whiteSpace=wrap;html=1;aspect=fixed;" vertex="1" parent="1">
          <mxGeometry x="770" y="-680" width="20" height="20" as="geometry" />
        </mxCell>
        <mxCell id="tfpIiOzo_Po5P9u3w-RI-179" value="" style="whiteSpace=wrap;html=1;aspect=fixed;" vertex="1" parent="1">
          <mxGeometry x="740" y="-680" width="20" height="20" as="geometry" />
        </mxCell>
        <mxCell id="tfpIiOzo_Po5P9u3w-RI-186" value="" style="edgeStyle=orthogonalEdgeStyle;rounded=0;orthogonalLoop=1;jettySize=auto;html=1;endArrow=none;endFill=0;entryX=1;entryY=0.5;entryDx=0;entryDy=0;entryPerimeter=0;" edge="1" parent="1" target="tfpIiOzo_Po5P9u3w-RI-185">
          <mxGeometry relative="1" as="geometry">
            <mxPoint x="719" y="-330" as="sourcePoint" />
            <mxPoint x="880" y="-500" as="targetPoint" />
            <Array as="points" />
          </mxGeometry>
        </mxCell>
        <mxCell id="tfpIiOzo_Po5P9u3w-RI-185" value="" style="whiteSpace=wrap;html=1;aspect=fixed;" vertex="1" parent="1">
          <mxGeometry x="710.5" y="-340" width="20" height="20" as="geometry" />
        </mxCell>
        <mxCell id="tfpIiOzo_Po5P9u3w-RI-187" value="" style="whiteSpace=wrap;html=1;aspect=fixed;" vertex="1" parent="1">
          <mxGeometry x="740" y="-340" width="20" height="20" as="geometry" />
        </mxCell>
        <mxCell id="tfpIiOzo_Po5P9u3w-RI-189" value="" style="whiteSpace=wrap;html=1;aspect=fixed;" vertex="1" parent="1">
          <mxGeometry x="770" y="-340" width="20" height="20" as="geometry" />
        </mxCell>
        <mxCell id="tfpIiOzo_Po5P9u3w-RI-191" value="" style="whiteSpace=wrap;html=1;aspect=fixed;" vertex="1" parent="1">
          <mxGeometry x="710.5" y="-260" width="20" height="20" as="geometry" />
        </mxCell>
        <mxCell id="tfpIiOzo_Po5P9u3w-RI-192" value="" style="endArrow=none;html=1;rounded=0;entryX=0.5;entryY=0;entryDx=0;entryDy=0;entryPerimeter=0;" edge="1" parent="1" target="puAjaU_ZfNTtAV1WR_DC-157">
          <mxGeometry width="50" height="50" relative="1" as="geometry">
            <mxPoint x="840" y="-40" as="sourcePoint" />
            <mxPoint x="840" y="-100" as="targetPoint" />
            <Array as="points" />
          </mxGeometry>
        </mxCell>
        <mxCell id="puAjaU_ZfNTtAV1WR_DC-157" value="" style="shape=providedRequiredInterface;html=1;verticalLabelPosition=bottom;sketch=0;rotation=180;" vertex="1" parent="1">
          <mxGeometry x="830" y="-260" width="20" height="20" as="geometry" />
        </mxCell>
        <mxCell id="tfpIiOzo_Po5P9u3w-RI-194" value="" style="edgeStyle=orthogonalEdgeStyle;rounded=0;orthogonalLoop=1;jettySize=auto;html=1;entryX=1;entryY=0.5;entryDx=0;entryDy=0;entryPerimeter=0;endArrow=none;endFill=0;exitX=1;exitY=0.5;exitDx=0;exitDy=0;" edge="1" parent="1" source="tfpIiOzo_Po5P9u3w-RI-191" target="tfpIiOzo_Po5P9u3w-RI-193">
          <mxGeometry relative="1" as="geometry">
            <mxPoint x="731" y="-250" as="sourcePoint" />
            <mxPoint x="830" y="-250" as="targetPoint" />
            <Array as="points" />
          </mxGeometry>
        </mxCell>
        <mxCell id="tfpIiOzo_Po5P9u3w-RI-193" value="" style="whiteSpace=wrap;html=1;aspect=fixed;" vertex="1" parent="1">
          <mxGeometry x="741" y="-260" width="20" height="20" as="geometry" />
        </mxCell>
        <mxCell id="tfpIiOzo_Po5P9u3w-RI-196" value="" style="edgeStyle=orthogonalEdgeStyle;rounded=0;orthogonalLoop=1;jettySize=auto;html=1;entryX=1;entryY=0.5;entryDx=0;entryDy=0;entryPerimeter=0;endArrow=none;endFill=0;exitX=1;exitY=0.5;exitDx=0;exitDy=0;" edge="1" parent="1" source="tfpIiOzo_Po5P9u3w-RI-193" target="tfpIiOzo_Po5P9u3w-RI-195">
          <mxGeometry relative="1" as="geometry">
            <mxPoint x="761" y="-250" as="sourcePoint" />
            <mxPoint x="830" y="-250" as="targetPoint" />
            <Array as="points" />
          </mxGeometry>
        </mxCell>
        <mxCell id="tfpIiOzo_Po5P9u3w-RI-195" value="" style="whiteSpace=wrap;html=1;aspect=fixed;" vertex="1" parent="1">
          <mxGeometry x="770" y="-260" width="20" height="20" as="geometry" />
        </mxCell>
        <mxCell id="tfpIiOzo_Po5P9u3w-RI-197" value="" style="endArrow=none;html=1;rounded=0;entryX=0;entryY=0.5;entryDx=0;entryDy=0;entryPerimeter=0;exitX=0;exitY=0.5;exitDx=0;exitDy=0;" edge="1" parent="1" source="CY8S7bmpGQMlvTJj6TYs-65" target="puAjaU_ZfNTtAV1WR_DC-161">
          <mxGeometry width="50" height="50" relative="1" as="geometry">
            <mxPoint x="890" y="-260" as="sourcePoint" />
            <mxPoint x="940" y="-310" as="targetPoint" />
          </mxGeometry>
        </mxCell>
        <mxCell id="tfpIiOzo_Po5P9u3w-RI-198" value="" style="whiteSpace=wrap;html=1;aspect=fixed;" vertex="1" parent="1">
          <mxGeometry x="220.74" y="-50" width="20" height="20" as="geometry" />
        </mxCell>
        <mxCell id="tfpIiOzo_Po5P9u3w-RI-199" value="" style="whiteSpace=wrap;html=1;aspect=fixed;" vertex="1" parent="1">
          <mxGeometry x="250" y="-50" width="20" height="20" as="geometry" />
        </mxCell>
        <mxCell id="tfpIiOzo_Po5P9u3w-RI-200" value="" style="whiteSpace=wrap;html=1;aspect=fixed;" vertex="1" parent="1">
          <mxGeometry x="280" y="-50" width="20" height="20" as="geometry" />
        </mxCell>
        <mxCell id="tfpIiOzo_Po5P9u3w-RI-203" value="" style="whiteSpace=wrap;html=1;aspect=fixed;" vertex="1" parent="1">
          <mxGeometry x="550" y="-50" width="20" height="20" as="geometry" />
        </mxCell>
        <mxCell id="tfpIiOzo_Po5P9u3w-RI-205" value="" style="endArrow=none;html=1;rounded=0;exitX=0;exitY=0.5;exitDx=0;exitDy=0;entryX=0;entryY=0.5;entryDx=0;entryDy=0;entryPerimeter=0;" edge="1" parent="1" source="tfpIiOzo_Po5P9u3w-RI-203" target="tfpIiOzo_Po5P9u3w-RI-204">
          <mxGeometry width="50" height="50" relative="1" as="geometry">
            <mxPoint x="550" y="-40" as="sourcePoint" />
            <mxPoint x="460" y="-40" as="targetPoint" />
          </mxGeometry>
        </mxCell>
        <mxCell id="tfpIiOzo_Po5P9u3w-RI-204" value="" style="whiteSpace=wrap;html=1;aspect=fixed;" vertex="1" parent="1">
          <mxGeometry x="490" y="-50" width="20" height="20" as="geometry" />
        </mxCell>
        <mxCell id="tfpIiOzo_Po5P9u3w-RI-201" value="" style="whiteSpace=wrap;html=1;aspect=fixed;" vertex="1" parent="1">
          <mxGeometry x="519.5" y="-50" width="20" height="20" as="geometry" />
        </mxCell>
        <mxCell id="tfpIiOzo_Po5P9u3w-RI-207" value="" style="endArrow=none;html=1;rounded=0;exitX=1;exitY=0.5;exitDx=0;exitDy=0;" edge="1" parent="1" target="tfpIiOzo_Po5P9u3w-RI-206">
          <mxGeometry width="50" height="50" relative="1" as="geometry">
            <mxPoint x="721" y="-40.42" as="sourcePoint" />
            <mxPoint x="840" y="-40.42" as="targetPoint" />
          </mxGeometry>
        </mxCell>
        <mxCell id="tfpIiOzo_Po5P9u3w-RI-206" value="" style="whiteSpace=wrap;html=1;aspect=fixed;" vertex="1" parent="1">
          <mxGeometry x="710.5" y="-50" width="20" height="20" as="geometry" />
        </mxCell>
        <mxCell id="tfpIiOzo_Po5P9u3w-RI-209" value="" style="endArrow=none;html=1;rounded=0;exitX=1;exitY=0.5;exitDx=0;exitDy=0;" edge="1" parent="1" source="tfpIiOzo_Po5P9u3w-RI-206" target="tfpIiOzo_Po5P9u3w-RI-208">
          <mxGeometry width="50" height="50" relative="1" as="geometry">
            <mxPoint x="731" y="-40" as="sourcePoint" />
            <mxPoint x="840" y="-40.42" as="targetPoint" />
          </mxGeometry>
        </mxCell>
        <mxCell id="tfpIiOzo_Po5P9u3w-RI-208" value="" style="whiteSpace=wrap;html=1;aspect=fixed;" vertex="1" parent="1">
          <mxGeometry x="740" y="-50" width="20" height="20" as="geometry" />
        </mxCell>
        <mxCell id="tfpIiOzo_Po5P9u3w-RI-210" value="" style="whiteSpace=wrap;html=1;aspect=fixed;" vertex="1" parent="1">
          <mxGeometry x="770" y="-50" width="20" height="20" as="geometry" />
        </mxCell>
        <mxCell id="tfpIiOzo_Po5P9u3w-RI-211" value="" style="whiteSpace=wrap;html=1;aspect=fixed;" vertex="1" parent="1">
          <mxGeometry x="550" y="30" width="20" height="20" as="geometry" />
        </mxCell>
        <mxCell id="tfpIiOzo_Po5P9u3w-RI-213" value="" style="endArrow=none;html=1;rounded=0;entryX=0;entryY=0.5;entryDx=0;entryDy=0;exitX=0;exitY=0.5;exitDx=0;exitDy=0;exitPerimeter=0;" edge="1" parent="1" source="tfpIiOzo_Po5P9u3w-RI-214" target="tfpIiOzo_Po5P9u3w-RI-212">
          <mxGeometry width="50" height="50" relative="1" as="geometry">
            <mxPoint x="460" y="30" as="sourcePoint" />
            <mxPoint x="562" y="30" as="targetPoint" />
          </mxGeometry>
        </mxCell>
        <mxCell id="tfpIiOzo_Po5P9u3w-RI-212" value="" style="whiteSpace=wrap;html=1;aspect=fixed;" vertex="1" parent="1">
          <mxGeometry x="520" y="30" width="20" height="20" as="geometry" />
        </mxCell>
        <mxCell id="tfpIiOzo_Po5P9u3w-RI-215" value="" style="endArrow=none;html=1;rounded=0;entryX=0;entryY=0.5;entryDx=0;entryDy=0;exitX=0;exitY=0.5;exitDx=0;exitDy=0;exitPerimeter=0;" edge="1" parent="1" source="tfpIiOzo_Po5P9u3w-RI-82" target="tfpIiOzo_Po5P9u3w-RI-214">
          <mxGeometry width="50" height="50" relative="1" as="geometry">
            <mxPoint x="460" y="30" as="sourcePoint" />
            <mxPoint x="520" y="30" as="targetPoint" />
          </mxGeometry>
        </mxCell>
        <mxCell id="tfpIiOzo_Po5P9u3w-RI-214" value="" style="whiteSpace=wrap;html=1;aspect=fixed;" vertex="1" parent="1">
          <mxGeometry x="490" y="30" width="20" height="20" as="geometry" />
        </mxCell>
        <mxCell id="tfpIiOzo_Po5P9u3w-RI-216" value="" style="whiteSpace=wrap;html=1;aspect=fixed;direction=south;" vertex="1" parent="1">
          <mxGeometry x="710.5" y="30" width="20" height="20" as="geometry" />
        </mxCell>
        <mxCell id="tfpIiOzo_Po5P9u3w-RI-217" value="" style="whiteSpace=wrap;html=1;aspect=fixed;" vertex="1" parent="1">
          <mxGeometry x="741" y="30" width="20" height="20" as="geometry" />
        </mxCell>
        <mxCell id="tfpIiOzo_Po5P9u3w-RI-219" value="" style="whiteSpace=wrap;html=1;aspect=fixed;" vertex="1" parent="1">
          <mxGeometry x="770" y="30" width="20" height="20" as="geometry" />
        </mxCell>
        <mxCell id="tfpIiOzo_Po5P9u3w-RI-221" value="" style="whiteSpace=wrap;html=1;aspect=fixed;" vertex="1" parent="1">
          <mxGeometry x="220.74" y="30" width="20" height="20" as="geometry" />
        </mxCell>
        <mxCell id="tfpIiOzo_Po5P9u3w-RI-223" value="" style="whiteSpace=wrap;html=1;aspect=fixed;" vertex="1" parent="1">
          <mxGeometry x="250" y="30" width="20" height="20" as="geometry" />
        </mxCell>
        <mxCell id="tfpIiOzo_Po5P9u3w-RI-224" value="" style="whiteSpace=wrap;html=1;aspect=fixed;" vertex="1" parent="1">
          <mxGeometry x="280" y="30" width="20" height="20" as="geometry" />
        </mxCell>
        <mxCell id="tfpIiOzo_Po5P9u3w-RI-225" value="" style="whiteSpace=wrap;html=1;aspect=fixed;" vertex="1" parent="1">
          <mxGeometry x="220" y="173" width="20" height="20" as="geometry" />
        </mxCell>
        <mxCell id="tfpIiOzo_Po5P9u3w-RI-226" value="" style="whiteSpace=wrap;html=1;aspect=fixed;" vertex="1" parent="1">
          <mxGeometry x="250" y="173" width="20" height="20" as="geometry" />
        </mxCell>
        <mxCell id="tfpIiOzo_Po5P9u3w-RI-227" value="" style="whiteSpace=wrap;html=1;aspect=fixed;" vertex="1" parent="1">
          <mxGeometry x="280" y="173" width="20" height="20" as="geometry" />
        </mxCell>
        <mxCell id="tfpIiOzo_Po5P9u3w-RI-230" value="" style="whiteSpace=wrap;html=1;aspect=fixed;" vertex="1" parent="1">
          <mxGeometry x="550" y="173" width="20" height="20" as="geometry" />
        </mxCell>
        <mxCell id="tfpIiOzo_Po5P9u3w-RI-231" value="" style="endArrow=none;html=1;rounded=0;exitX=1;exitY=0.5;exitDx=0;exitDy=0;exitPerimeter=0;entryX=0;entryY=0.5;entryDx=0;entryDy=0;" edge="1" parent="1" source="tfpIiOzo_Po5P9u3w-RI-79" target="tfpIiOzo_Po5P9u3w-RI-230">
          <mxGeometry width="50" height="50" relative="1" as="geometry">
            <mxPoint x="390" y="150" as="sourcePoint" />
            <mxPoint x="440" y="100" as="targetPoint" />
          </mxGeometry>
        </mxCell>
        <mxCell id="tfpIiOzo_Po5P9u3w-RI-229" value="" style="whiteSpace=wrap;html=1;aspect=fixed;" vertex="1" parent="1">
          <mxGeometry x="490" y="173" width="20" height="20" as="geometry" />
        </mxCell>
        <mxCell id="tfpIiOzo_Po5P9u3w-RI-228" value="" style="whiteSpace=wrap;html=1;aspect=fixed;" vertex="1" parent="1">
          <mxGeometry x="520" y="173" width="20" height="20" as="geometry" />
        </mxCell>
        <mxCell id="tfpIiOzo_Po5P9u3w-RI-232" value="" style="whiteSpace=wrap;html=1;aspect=fixed;" vertex="1" parent="1">
          <mxGeometry x="220" y="330" width="20" height="20" as="geometry" />
        </mxCell>
        <mxCell id="tfpIiOzo_Po5P9u3w-RI-234" value="" style="whiteSpace=wrap;html=1;aspect=fixed;" vertex="1" parent="1">
          <mxGeometry x="710.5" y="173" width="20" height="20" as="geometry" />
        </mxCell>
        <mxCell id="tfpIiOzo_Po5P9u3w-RI-235" value="" style="whiteSpace=wrap;html=1;aspect=fixed;" vertex="1" parent="1">
          <mxGeometry x="741" y="173" width="20" height="20" as="geometry" />
        </mxCell>
        <mxCell id="tfpIiOzo_Po5P9u3w-RI-236" value="" style="whiteSpace=wrap;html=1;aspect=fixed;" vertex="1" parent="1">
          <mxGeometry x="770" y="173" width="20" height="20" as="geometry" />
        </mxCell>
        <mxCell id="tfpIiOzo_Po5P9u3w-RI-241" value="" style="endArrow=none;html=1;rounded=0;entryX=1;entryY=0.5;entryDx=0;entryDy=0;entryPerimeter=0;exitX=1;exitY=0.5;exitDx=0;exitDy=0;" edge="1" parent="1" source="tfpIiOzo_Po5P9u3w-RI-232" target="tfpIiOzo_Po5P9u3w-RI-240">
          <mxGeometry width="50" height="50" relative="1" as="geometry">
            <mxPoint x="241" y="330" as="sourcePoint" />
            <mxPoint x="430" y="330" as="targetPoint" />
          </mxGeometry>
        </mxCell>
        <mxCell id="tfpIiOzo_Po5P9u3w-RI-240" value="" style="whiteSpace=wrap;html=1;aspect=fixed;" vertex="1" parent="1">
          <mxGeometry x="250" y="330" width="20" height="20" as="geometry" />
        </mxCell>
        <mxCell id="tfpIiOzo_Po5P9u3w-RI-242" value="" style="endArrow=none;html=1;rounded=0;entryX=1;entryY=0.5;entryDx=0;entryDy=0;entryPerimeter=0;exitX=1;exitY=0.5;exitDx=0;exitDy=0;" edge="1" parent="1" source="tfpIiOzo_Po5P9u3w-RI-240" target="tfpIiOzo_Po5P9u3w-RI-239">
          <mxGeometry width="50" height="50" relative="1" as="geometry">
            <mxPoint x="270" y="330" as="sourcePoint" />
            <mxPoint x="430" y="330" as="targetPoint" />
          </mxGeometry>
        </mxCell>
        <mxCell id="tfpIiOzo_Po5P9u3w-RI-239" value="" style="whiteSpace=wrap;html=1;aspect=fixed;" vertex="1" parent="1">
          <mxGeometry x="280" y="330" width="20" height="20" as="geometry" />
        </mxCell>
        <mxCell id="tfpIiOzo_Po5P9u3w-RI-243" value="" style="whiteSpace=wrap;html=1;aspect=fixed;" vertex="1" parent="1">
          <mxGeometry x="220.74" y="400" width="20" height="20" as="geometry" />
        </mxCell>
        <mxCell id="tfpIiOzo_Po5P9u3w-RI-244" value="" style="whiteSpace=wrap;html=1;aspect=fixed;" vertex="1" parent="1">
          <mxGeometry x="220.74" y="470" width="20" height="20" as="geometry" />
        </mxCell>
        <mxCell id="tfpIiOzo_Po5P9u3w-RI-246" value="" style="endArrow=none;html=1;rounded=0;exitX=1;exitY=0.5;exitDx=0;exitDy=0;entryX=0;entryY=0.5;entryDx=0;entryDy=0;entryPerimeter=0;" edge="1" parent="1" source="tfpIiOzo_Po5P9u3w-RI-243" target="tfpIiOzo_Po5P9u3w-RI-245">
          <mxGeometry width="50" height="50" relative="1" as="geometry">
            <mxPoint x="241" y="410" as="sourcePoint" />
            <mxPoint x="430" y="400" as="targetPoint" />
          </mxGeometry>
        </mxCell>
        <mxCell id="tfpIiOzo_Po5P9u3w-RI-245" value="" style="whiteSpace=wrap;html=1;aspect=fixed;" vertex="1" parent="1">
          <mxGeometry x="250" y="400" width="20" height="20" as="geometry" />
        </mxCell>
        <mxCell id="tfpIiOzo_Po5P9u3w-RI-248" value="" style="endArrow=none;html=1;rounded=0;exitX=1;exitY=0.5;exitDx=0;exitDy=0;entryX=0;entryY=0.5;entryDx=0;entryDy=0;entryPerimeter=0;" edge="1" parent="1" source="tfpIiOzo_Po5P9u3w-RI-245" target="tfpIiOzo_Po5P9u3w-RI-247">
          <mxGeometry width="50" height="50" relative="1" as="geometry">
            <mxPoint x="270" y="410" as="sourcePoint" />
            <mxPoint x="430" y="400" as="targetPoint" />
          </mxGeometry>
        </mxCell>
        <mxCell id="tfpIiOzo_Po5P9u3w-RI-247" value="" style="whiteSpace=wrap;html=1;aspect=fixed;" vertex="1" parent="1">
          <mxGeometry x="280" y="400" width="20" height="20" as="geometry" />
        </mxCell>
        <mxCell id="tfpIiOzo_Po5P9u3w-RI-250" value="" style="endArrow=none;html=1;rounded=0;exitX=1;exitY=0.5;exitDx=0;exitDy=0;entryX=0;entryY=0.5;entryDx=0;entryDy=0;entryPerimeter=0;" edge="1" parent="1" source="tfpIiOzo_Po5P9u3w-RI-244" target="tfpIiOzo_Po5P9u3w-RI-249">
          <mxGeometry width="50" height="50" relative="1" as="geometry">
            <mxPoint x="241" y="480" as="sourcePoint" />
            <mxPoint x="440" y="470" as="targetPoint" />
          </mxGeometry>
        </mxCell>
        <mxCell id="tfpIiOzo_Po5P9u3w-RI-249" value="" style="whiteSpace=wrap;html=1;aspect=fixed;" vertex="1" parent="1">
          <mxGeometry x="250" y="470" width="20" height="20" as="geometry" />
        </mxCell>
        <mxCell id="tfpIiOzo_Po5P9u3w-RI-251" value="" style="whiteSpace=wrap;html=1;aspect=fixed;" vertex="1" parent="1">
          <mxGeometry x="280" y="470" width="20" height="20" as="geometry" />
        </mxCell>
        <mxCell id="tfpIiOzo_Po5P9u3w-RI-252" value="" style="whiteSpace=wrap;html=1;aspect=fixed;" vertex="1" parent="1">
          <mxGeometry x="550" y="330" width="20" height="20" as="geometry" />
        </mxCell>
        <mxCell id="tfpIiOzo_Po5P9u3w-RI-255" value="" style="endArrow=none;html=1;rounded=0;exitX=0;exitY=0.5;exitDx=0;exitDy=0;exitPerimeter=0;entryX=0;entryY=0.5;entryDx=0;entryDy=0;" edge="1" parent="1" source="tfpIiOzo_Po5P9u3w-RI-253" target="tfpIiOzo_Po5P9u3w-RI-254">
          <mxGeometry width="50" height="50" relative="1" as="geometry">
            <mxPoint x="450" y="340" as="sourcePoint" />
            <mxPoint x="550" y="340" as="targetPoint" />
          </mxGeometry>
        </mxCell>
        <mxCell id="tfpIiOzo_Po5P9u3w-RI-254" value="" style="whiteSpace=wrap;html=1;aspect=fixed;" vertex="1" parent="1">
          <mxGeometry x="520" y="330" width="20" height="20" as="geometry" />
        </mxCell>
        <mxCell id="tfpIiOzo_Po5P9u3w-RI-256" value="" style="endArrow=none;html=1;rounded=0;exitX=0;exitY=0.5;exitDx=0;exitDy=0;exitPerimeter=0;entryX=0;entryY=0.5;entryDx=0;entryDy=0;" edge="1" parent="1" source="tfpIiOzo_Po5P9u3w-RI-74" target="tfpIiOzo_Po5P9u3w-RI-253">
          <mxGeometry width="50" height="50" relative="1" as="geometry">
            <mxPoint x="450" y="340" as="sourcePoint" />
            <mxPoint x="520" y="340" as="targetPoint" />
          </mxGeometry>
        </mxCell>
        <mxCell id="tfpIiOzo_Po5P9u3w-RI-253" value="" style="whiteSpace=wrap;html=1;aspect=fixed;" vertex="1" parent="1">
          <mxGeometry x="490" y="330" width="20" height="20" as="geometry" />
        </mxCell>
        <mxCell id="tfpIiOzo_Po5P9u3w-RI-257" value="" style="whiteSpace=wrap;html=1;aspect=fixed;" vertex="1" parent="1">
          <mxGeometry x="490" y="400" width="20" height="20" as="geometry" />
        </mxCell>
        <mxCell id="tfpIiOzo_Po5P9u3w-RI-259" value="" style="endArrow=none;html=1;rounded=0;entryX=1;entryY=0.5;entryDx=0;entryDy=0;entryPerimeter=0;exitX=0;exitY=0.5;exitDx=0;exitDy=0;" edge="1" parent="1" source="tfpIiOzo_Po5P9u3w-RI-260" target="tfpIiOzo_Po5P9u3w-RI-258">
          <mxGeometry width="50" height="50" relative="1" as="geometry">
            <mxPoint x="562" y="410" as="sourcePoint" />
            <mxPoint x="460" y="410" as="targetPoint" />
          </mxGeometry>
        </mxCell>
        <mxCell id="tfpIiOzo_Po5P9u3w-RI-258" value="" style="whiteSpace=wrap;html=1;aspect=fixed;" vertex="1" parent="1">
          <mxGeometry x="520.5" y="400" width="20" height="20" as="geometry" />
        </mxCell>
        <mxCell id="tfpIiOzo_Po5P9u3w-RI-261" value="" style="endArrow=none;html=1;rounded=0;entryX=1;entryY=0.5;entryDx=0;entryDy=0;entryPerimeter=0;exitX=0;exitY=0.5;exitDx=0;exitDy=0;" edge="1" parent="1" source="puAjaU_ZfNTtAV1WR_DC-204" target="tfpIiOzo_Po5P9u3w-RI-260">
          <mxGeometry width="50" height="50" relative="1" as="geometry">
            <mxPoint x="562" y="410" as="sourcePoint" />
            <mxPoint x="541" y="410" as="targetPoint" />
          </mxGeometry>
        </mxCell>
        <mxCell id="tfpIiOzo_Po5P9u3w-RI-260" value="" style="whiteSpace=wrap;html=1;aspect=fixed;" vertex="1" parent="1">
          <mxGeometry x="555.25" y="400" width="20" height="20" as="geometry" />
        </mxCell>
        <mxCell id="tfpIiOzo_Po5P9u3w-RI-262" value="" style="whiteSpace=wrap;html=1;aspect=fixed;" vertex="1" parent="1">
          <mxGeometry x="550" y="470" width="20" height="20" as="geometry" />
        </mxCell>
        <mxCell id="tfpIiOzo_Po5P9u3w-RI-263" value="" style="whiteSpace=wrap;html=1;aspect=fixed;" vertex="1" parent="1">
          <mxGeometry x="519.5" y="470" width="20" height="20" as="geometry" />
        </mxCell>
        <mxCell id="tfpIiOzo_Po5P9u3w-RI-264" value="" style="whiteSpace=wrap;html=1;aspect=fixed;" vertex="1" parent="1">
          <mxGeometry x="490" y="470" width="20" height="20" as="geometry" />
        </mxCell>
        <mxCell id="tfpIiOzo_Po5P9u3w-RI-266" value="" style="whiteSpace=wrap;html=1;aspect=fixed;" vertex="1" parent="1">
          <mxGeometry x="220" y="610" width="20" height="20" as="geometry" />
        </mxCell>
        <mxCell id="tfpIiOzo_Po5P9u3w-RI-268" value="" style="edgeStyle=orthogonalEdgeStyle;rounded=0;orthogonalLoop=1;jettySize=auto;html=1;exitX=1;exitY=0.5;exitDx=0;exitDy=0;entryX=1;entryY=0.5;entryDx=0;entryDy=0;entryPerimeter=0;endArrow=none;endFill=0;" edge="1" parent="1" source="tfpIiOzo_Po5P9u3w-RI-266" target="tfpIiOzo_Po5P9u3w-RI-267">
          <mxGeometry relative="1" as="geometry">
            <mxPoint x="240" y="620" as="sourcePoint" />
            <mxPoint x="490" y="600" as="targetPoint" />
          </mxGeometry>
        </mxCell>
        <mxCell id="tfpIiOzo_Po5P9u3w-RI-267" value="" style="whiteSpace=wrap;html=1;aspect=fixed;" vertex="1" parent="1">
          <mxGeometry x="250" y="610" width="20" height="20" as="geometry" />
        </mxCell>
        <mxCell id="tfpIiOzo_Po5P9u3w-RI-270" value="" style="edgeStyle=orthogonalEdgeStyle;rounded=0;orthogonalLoop=1;jettySize=auto;html=1;exitX=1;exitY=0.5;exitDx=0;exitDy=0;entryX=1;entryY=0.5;entryDx=0;entryDy=0;entryPerimeter=0;endArrow=none;endFill=0;" edge="1" parent="1" source="tfpIiOzo_Po5P9u3w-RI-267" target="tfpIiOzo_Po5P9u3w-RI-269">
          <mxGeometry relative="1" as="geometry">
            <mxPoint x="270" y="620" as="sourcePoint" />
            <mxPoint x="490" y="600" as="targetPoint" />
          </mxGeometry>
        </mxCell>
        <mxCell id="tfpIiOzo_Po5P9u3w-RI-269" value="" style="whiteSpace=wrap;html=1;aspect=fixed;" vertex="1" parent="1">
          <mxGeometry x="280" y="610" width="20" height="20" as="geometry" />
        </mxCell>
        <mxCell id="tfpIiOzo_Po5P9u3w-RI-276" value="" style="whiteSpace=wrap;html=1;aspect=fixed;" vertex="1" parent="1">
          <mxGeometry x="555.25" y="610" width="20" height="20" as="geometry" />
        </mxCell>
        <mxCell id="tfpIiOzo_Po5P9u3w-RI-280" value="" style="endArrow=none;html=1;rounded=0;exitX=0;exitY=0.5;exitDx=0;exitDy=0;exitPerimeter=0;entryX=0;entryY=0.5;entryDx=0;entryDy=0;" edge="1" parent="1" source="puAjaU_ZfNTtAV1WR_DC-245" target="tfpIiOzo_Po5P9u3w-RI-276">
          <mxGeometry width="50" height="50" relative="1" as="geometry">
            <mxPoint x="410" y="580" as="sourcePoint" />
            <mxPoint x="460" y="530" as="targetPoint" />
          </mxGeometry>
        </mxCell>
        <mxCell id="tfpIiOzo_Po5P9u3w-RI-278" value="" style="whiteSpace=wrap;html=1;aspect=fixed;" vertex="1" parent="1">
          <mxGeometry x="520" y="610" width="20" height="20" as="geometry" />
        </mxCell>
        <mxCell id="tfpIiOzo_Po5P9u3w-RI-282" value="" style="whiteSpace=wrap;html=1;aspect=fixed;" vertex="1" parent="1">
          <mxGeometry x="710.5" y="330" width="20" height="20" as="geometry" />
        </mxCell>
        <mxCell id="tfpIiOzo_Po5P9u3w-RI-284" value="" style="endArrow=none;html=1;rounded=0;entryX=1;entryY=0.5;entryDx=0;entryDy=0;entryPerimeter=0;exitX=0;exitY=0.692;exitDx=0;exitDy=0;exitPerimeter=0;" edge="1" parent="1" source="CY8S7bmpGQMlvTJj6TYs-48" target="tfpIiOzo_Po5P9u3w-RI-283">
          <mxGeometry width="50" height="50" relative="1" as="geometry">
            <mxPoint x="1039" y="183" as="sourcePoint" />
            <mxPoint x="940" y="183" as="targetPoint" />
          </mxGeometry>
        </mxCell>
        <mxCell id="tfpIiOzo_Po5P9u3w-RI-283" value="" style="whiteSpace=wrap;html=1;aspect=fixed;" vertex="1" parent="1">
          <mxGeometry x="1030" y="173" width="20" height="20" as="geometry" />
        </mxCell>
        <mxCell id="tfpIiOzo_Po5P9u3w-RI-285" value="" style="whiteSpace=wrap;html=1;aspect=fixed;" vertex="1" parent="1">
          <mxGeometry x="990" y="173" width="20" height="20" as="geometry" />
        </mxCell>
        <mxCell id="tfpIiOzo_Po5P9u3w-RI-287" value="" style="endArrow=none;html=1;rounded=0;exitX=1;exitY=0.5;exitDx=0;exitDy=0;entryX=1;entryY=0.5;entryDx=0;entryDy=0;entryPerimeter=0;" edge="1" parent="1" source="tfpIiOzo_Po5P9u3w-RI-282" target="tfpIiOzo_Po5P9u3w-RI-286">
          <mxGeometry width="50" height="50" relative="1" as="geometry">
            <mxPoint x="731" y="340" as="sourcePoint" />
            <mxPoint x="920" y="340" as="targetPoint" />
          </mxGeometry>
        </mxCell>
        <mxCell id="tfpIiOzo_Po5P9u3w-RI-286" value="" style="whiteSpace=wrap;html=1;aspect=fixed;" vertex="1" parent="1">
          <mxGeometry x="741" y="330" width="20" height="20" as="geometry" />
        </mxCell>
        <mxCell id="tfpIiOzo_Po5P9u3w-RI-289" value="" style="endArrow=none;html=1;rounded=0;exitX=1;exitY=0.5;exitDx=0;exitDy=0;entryX=1;entryY=0.5;entryDx=0;entryDy=0;entryPerimeter=0;" edge="1" parent="1" source="tfpIiOzo_Po5P9u3w-RI-286" target="tfpIiOzo_Po5P9u3w-RI-288">
          <mxGeometry width="50" height="50" relative="1" as="geometry">
            <mxPoint x="761" y="340" as="sourcePoint" />
            <mxPoint x="920" y="340" as="targetPoint" />
          </mxGeometry>
        </mxCell>
        <mxCell id="tfpIiOzo_Po5P9u3w-RI-288" value="" style="whiteSpace=wrap;html=1;aspect=fixed;" vertex="1" parent="1">
          <mxGeometry x="770" y="330" width="20" height="20" as="geometry" />
        </mxCell>
        <mxCell id="tfpIiOzo_Po5P9u3w-RI-290" value="" style="whiteSpace=wrap;html=1;aspect=fixed;" vertex="1" parent="1">
          <mxGeometry x="1030" y="330" width="20" height="20" as="geometry" />
        </mxCell>
        <mxCell id="tfpIiOzo_Po5P9u3w-RI-292" value="" style="endArrow=none;html=1;rounded=0;exitX=0;exitY=0.5;exitDx=0;exitDy=0;exitPerimeter=0;entryX=0;entryY=0.5;entryDx=0;entryDy=0;" edge="1" parent="1" source="tfpIiOzo_Po5P9u3w-RI-54" target="tfpIiOzo_Po5P9u3w-RI-290">
          <mxGeometry width="50" height="50" relative="1" as="geometry">
            <mxPoint x="840" y="300" as="sourcePoint" />
            <mxPoint x="890" y="250" as="targetPoint" />
          </mxGeometry>
        </mxCell>
        <mxCell id="tfpIiOzo_Po5P9u3w-RI-291" value="" style="whiteSpace=wrap;html=1;aspect=fixed;" vertex="1" parent="1">
          <mxGeometry x="990" y="330" width="20" height="20" as="geometry" />
        </mxCell>
        <mxCell id="tfpIiOzo_Po5P9u3w-RI-293" value="" style="whiteSpace=wrap;html=1;aspect=fixed;" vertex="1" parent="1">
          <mxGeometry x="710.5" y="410" width="20" height="20" as="geometry" />
        </mxCell>
        <mxCell id="tfpIiOzo_Po5P9u3w-RI-295" value="" style="whiteSpace=wrap;html=1;aspect=fixed;" vertex="1" parent="1">
          <mxGeometry x="1030" y="410" width="20" height="20" as="geometry" />
        </mxCell>
        <mxCell id="tfpIiOzo_Po5P9u3w-RI-296" value="" style="whiteSpace=wrap;html=1;aspect=fixed;" vertex="1" parent="1">
          <mxGeometry x="990" y="410" width="20" height="20" as="geometry" />
        </mxCell>
        <mxCell id="tfpIiOzo_Po5P9u3w-RI-297" value="" style="whiteSpace=wrap;html=1;aspect=fixed;" vertex="1" parent="1">
          <mxGeometry x="710.5" y="480" width="20" height="20" as="geometry" />
        </mxCell>
        <mxCell id="tfpIiOzo_Po5P9u3w-RI-298" value="" style="whiteSpace=wrap;html=1;aspect=fixed;" vertex="1" parent="1">
          <mxGeometry x="1030" y="480" width="20" height="20" as="geometry" />
        </mxCell>
        <mxCell id="tfpIiOzo_Po5P9u3w-RI-300" value="" style="endArrow=none;html=1;rounded=0;entryX=1;entryY=0.5;entryDx=0;entryDy=0;entryPerimeter=0;exitX=0;exitY=0.5;exitDx=0;exitDy=0;" edge="1" parent="1" source="tfpIiOzo_Po5P9u3w-RI-298" target="tfpIiOzo_Po5P9u3w-RI-299">
          <mxGeometry width="50" height="50" relative="1" as="geometry">
            <mxPoint x="1030" y="490" as="sourcePoint" />
            <mxPoint x="940" y="490" as="targetPoint" />
          </mxGeometry>
        </mxCell>
        <mxCell id="tfpIiOzo_Po5P9u3w-RI-299" value="" style="whiteSpace=wrap;html=1;aspect=fixed;" vertex="1" parent="1">
          <mxGeometry x="990" y="480" width="20" height="20" as="geometry" />
        </mxCell>
        <mxCell id="tfpIiOzo_Po5P9u3w-RI-301" value="" style="whiteSpace=wrap;html=1;aspect=fixed;" vertex="1" parent="1">
          <mxGeometry x="710.5" y="615" width="20" height="20" as="geometry" />
        </mxCell>
        <mxCell id="tfpIiOzo_Po5P9u3w-RI-303" value="" style="whiteSpace=wrap;html=1;aspect=fixed;" vertex="1" parent="1">
          <mxGeometry x="990" y="615" width="20" height="20" as="geometry" />
        </mxCell>
        <mxCell id="tfpIiOzo_Po5P9u3w-RI-304" value="" style="whiteSpace=wrap;html=1;aspect=fixed;" vertex="1" parent="1">
          <mxGeometry x="1030" y="615" width="20" height="20" as="geometry" />
        </mxCell>
        <mxCell id="tfpIiOzo_Po5P9u3w-RI-305" value="File checking" style="text;html=1;align=center;verticalAlign=middle;resizable=0;points=[];autosize=1;strokeColor=none;fillColor=none;" vertex="1" parent="1">
          <mxGeometry x="400" y="-920" width="90" height="30" as="geometry" />
        </mxCell>
        <mxCell id="tfpIiOzo_Po5P9u3w-RI-307" value="Properties &lt;br&gt;checking" style="text;html=1;align=center;verticalAlign=middle;resizable=0;points=[];autosize=1;strokeColor=none;fillColor=none;" vertex="1" parent="1">
          <mxGeometry x="410" y="-830" width="80" height="40" as="geometry" />
        </mxCell>
        <mxCell id="tfpIiOzo_Po5P9u3w-RI-308" value="" style="endArrow=none;html=1;rounded=0;" edge="1" parent="1">
          <mxGeometry width="50" height="50" relative="1" as="geometry">
            <mxPoint x="340" y="-670" as="sourcePoint" />
            <mxPoint x="340" y="-880" as="targetPoint" />
          </mxGeometry>
        </mxCell>
        <mxCell id="tfpIiOzo_Po5P9u3w-RI-309" value="" style="endArrow=none;html=1;rounded=0;" edge="1" parent="1">
          <mxGeometry width="50" height="50" relative="1" as="geometry">
            <mxPoint x="360" y="-670" as="sourcePoint" />
            <mxPoint x="360" y="-810" as="targetPoint" />
          </mxGeometry>
        </mxCell>
        <mxCell id="tfpIiOzo_Po5P9u3w-RI-310" value="" style="endArrow=none;html=1;rounded=0;" edge="1" parent="1">
          <mxGeometry width="50" height="50" relative="1" as="geometry">
            <mxPoint x="380" y="-670" as="sourcePoint" />
            <mxPoint x="380" y="-740" as="targetPoint" />
          </mxGeometry>
        </mxCell>
        <mxCell id="tfpIiOzo_Po5P9u3w-RI-311" value="Create packet" style="text;html=1;align=center;verticalAlign=middle;resizable=0;points=[];autosize=1;strokeColor=none;fillColor=none;" vertex="1" parent="1">
          <mxGeometry x="390" y="-710" width="100" height="30" as="geometry" />
        </mxCell>
        <mxCell id="tfpIiOzo_Po5P9u3w-RI-312" value="Printing Actions" style="text;html=1;align=center;verticalAlign=middle;resizable=0;points=[];autosize=1;strokeColor=none;fillColor=none;" vertex="1" parent="1">
          <mxGeometry x="820" y="-710" width="110" height="30" as="geometry" />
        </mxCell>
        <mxCell id="tfpIiOzo_Po5P9u3w-RI-314" value="Create &lt;br&gt;available pages" style="text;html=1;align=center;verticalAlign=middle;resizable=0;points=[];autosize=1;strokeColor=none;fillColor=none;" vertex="1" parent="1">
          <mxGeometry x="355" y="-590" width="110" height="40" as="geometry" />
        </mxCell>
        <mxCell id="tfpIiOzo_Po5P9u3w-RI-315" value="Transaction&lt;br&gt;processing" style="text;html=1;align=center;verticalAlign=middle;resizable=0;points=[];autosize=1;strokeColor=none;fillColor=none;" vertex="1" parent="1">
          <mxGeometry x="360" y="-516" width="90" height="40" as="geometry" />
        </mxCell>
        <mxCell id="tfpIiOzo_Po5P9u3w-RI-317" value="Summary &lt;br&gt;printed pages" style="text;html=1;align=center;verticalAlign=middle;resizable=0;points=[];autosize=1;strokeColor=none;fillColor=none;" vertex="1" parent="1">
          <mxGeometry x="360" y="-380" width="100" height="40" as="geometry" />
        </mxCell>
        <mxCell id="tfpIiOzo_Po5P9u3w-RI-318" value="Display filters&amp;nbsp;" style="text;html=1;align=center;verticalAlign=middle;resizable=0;points=[];autosize=1;strokeColor=none;fillColor=none;" vertex="1" parent="1">
          <mxGeometry x="360" y="-290" width="100" height="30" as="geometry" />
        </mxCell>
        <mxCell id="tfpIiOzo_Po5P9u3w-RI-319" value="Display filters&amp;nbsp;" style="text;html=1;align=center;verticalAlign=middle;resizable=0;points=[];autosize=1;strokeColor=none;fillColor=none;" vertex="1" parent="1">
          <mxGeometry x="355" y="-80" width="100" height="30" as="geometry" />
        </mxCell>
        <mxCell id="tfpIiOzo_Po5P9u3w-RI-322" value="History filters&amp;nbsp;" style="text;html=1;align=center;verticalAlign=middle;resizable=0;points=[];autosize=1;strokeColor=none;fillColor=none;" vertex="1" parent="1">
          <mxGeometry x="355" width="100" height="30" as="geometry" />
        </mxCell>
        <mxCell id="tfpIiOzo_Po5P9u3w-RI-323" value="Set Configuration" style="text;html=1;align=center;verticalAlign=middle;resizable=0;points=[];autosize=1;strokeColor=none;fillColor=none;" vertex="1" parent="1">
          <mxGeometry x="345" y="143" width="120" height="30" as="geometry" />
        </mxCell>
        <mxCell id="tfpIiOzo_Po5P9u3w-RI-324" value="Set Configuration" style="text;html=1;align=center;verticalAlign=middle;resizable=0;points=[];autosize=1;strokeColor=none;fillColor=none;" vertex="1" parent="1">
          <mxGeometry x="345" y="375" width="120" height="30" as="geometry" />
        </mxCell>
        <mxCell id="tfpIiOzo_Po5P9u3w-RI-325" value="Set Configuration" style="text;html=1;align=center;verticalAlign=middle;resizable=0;points=[];autosize=1;strokeColor=none;fillColor=none;" vertex="1" parent="1">
          <mxGeometry x="345" y="440" width="120" height="30" as="geometry" />
        </mxCell>
        <mxCell id="tfpIiOzo_Po5P9u3w-RI-326" value="&lt;span style=&quot;text-wrap: wrap;&quot;&gt;Save Configuration&lt;/span&gt;" style="text;html=1;align=center;verticalAlign=middle;resizable=0;points=[];autosize=1;strokeColor=none;fillColor=none;" vertex="1" parent="1">
          <mxGeometry x="825" y="380" width="130" height="30" as="geometry" />
        </mxCell>
        <mxCell id="tfpIiOzo_Po5P9u3w-RI-327" value="&lt;span style=&quot;text-wrap: wrap;&quot;&gt;Save Configuration&lt;/span&gt;" style="text;html=1;align=center;verticalAlign=middle;resizable=0;points=[];autosize=1;strokeColor=none;fillColor=none;" vertex="1" parent="1">
          <mxGeometry x="825" y="450" width="130" height="30" as="geometry" />
        </mxCell>
        <mxCell id="tfpIiOzo_Po5P9u3w-RI-329" value="Printer information" style="text;html=1;align=center;verticalAlign=middle;resizable=0;points=[];autosize=1;strokeColor=none;fillColor=none;" vertex="1" parent="1">
          <mxGeometry x="825" y="300" width="120" height="30" as="geometry" />
        </mxCell>
        <mxCell id="tfpIiOzo_Po5P9u3w-RI-331" value="Load information" style="text;html=1;align=center;verticalAlign=middle;resizable=0;points=[];autosize=1;strokeColor=none;fillColor=none;" vertex="1" parent="1">
          <mxGeometry x="350" y="300" width="110" height="30" as="geometry" />
        </mxCell>
        <mxCell id="tfpIiOzo_Po5P9u3w-RI-332" value="Report documents" style="text;html=1;align=center;verticalAlign=middle;resizable=0;points=[];autosize=1;strokeColor=none;fillColor=none;" vertex="1" parent="1">
          <mxGeometry x="830" y="585" width="120" height="30" as="geometry" />
        </mxCell>
        <mxCell id="tfpIiOzo_Po5P9u3w-RI-333" value="Report filters" style="text;html=1;align=center;verticalAlign=middle;resizable=0;points=[];autosize=1;strokeColor=none;fillColor=none;" vertex="1" parent="1">
          <mxGeometry x="360" y="580" width="90" height="30" as="geometry" />
        </mxCell>
        <mxCell id="tfpIiOzo_Po5P9u3w-RI-336" value="Log Printing History" style="text;html=1;align=center;verticalAlign=middle;resizable=0;points=[];autosize=1;strokeColor=none;fillColor=none;" vertex="1" parent="1">
          <mxGeometry x="815" y="-540" width="130" height="30" as="geometry" />
        </mxCell>
        <mxCell id="tfpIiOzo_Po5P9u3w-RI-341" value="Log Printing &lt;br&gt;History" style="text;html=1;align=center;verticalAlign=middle;resizable=0;points=[];autosize=1;strokeColor=none;fillColor=none;" vertex="1" parent="1">
          <mxGeometry x="870" y="-270" width="90" height="40" as="geometry" />
        </mxCell>
        <mxCell id="tfpIiOzo_Po5P9u3w-RI-343" value="Log Printing &lt;br&gt;History" style="text;html=1;align=center;verticalAlign=middle;resizable=0;points=[];autosize=1;strokeColor=none;fillColor=none;" vertex="1" parent="1">
          <mxGeometry x="880" y="-416" width="90" height="40" as="geometry" />
        </mxCell>
      </root>
    </mxGraphModel>
  </diagram>
</mxfile>
